<svg width="400" height="290" viewBox="0 0 400 290" fill="none" xmlns="http://www.w3.org/2000/svg">
<g clip-path="url(#clip0_14_483)">
<path d="M338.286 3.40618V111.392C337.96 111.061 337.639 110.73 337.313 110.399C337.114 110.197 336.914 109.994 336.713 109.792C323.49 96.4958 307.289 86.5414 289.452 80.7537C271.615 74.966 252.655 73.5118 234.144 76.5113C220.756 78.673 208.175 81.984 200.652 87.054C144.071 125.184 79.8734 88.8479 61.8985 78.6878C61.5725 78.5077 61.2464 78.3228 60.9253 78.133V3.40619C60.9253 2.50281 61.2842 1.63644 61.9229 0.997654C62.5617 0.35887 63.4281 0 64.3315 0H334.88C335.783 0 336.65 0.358865 337.289 0.997646C337.927 1.63643 338.286 2.5028 338.286 3.40618Z" fill="#22293C"/>
<path d="M201.309 165.519L194.004 167.171C193.157 171.982 193.312 191.523 193.312 191.523L192.683 210.222C192.35 210.698 192.149 211.254 192.099 211.832C192.05 212.411 192.154 212.993 192.4 213.519C192.647 214.044 193.028 214.496 193.504 214.828C193.981 215.16 194.537 215.361 195.115 215.41C195.694 215.458 196.276 215.354 196.801 215.107C197.327 214.86 197.778 214.478 198.109 214.001C198.441 213.524 198.641 212.968 198.689 212.389C198.737 211.811 198.632 211.229 198.384 210.704L199.334 187.643L201.309 165.519Z" fill="#FFB6B6"/>
<path d="M192.867 146.711C194.002 146.468 195.178 146.478 196.309 146.74C197.44 147.003 198.499 147.512 199.411 148.23C200.323 148.949 201.066 149.859 201.586 150.897C202.106 151.936 202.391 153.076 202.421 154.236L202.541 158.963C202.541 158.963 204.391 183.056 202.691 187.762L200.279 201.348L192.532 202.337L192.151 188.043C192.151 188.043 194.439 172.263 191.956 169.702C190.435 168.134 188.008 161.64 186.79 156.069C186.573 155.055 186.559 154.009 186.747 152.99C186.936 151.971 187.323 150.999 187.887 150.129C188.452 149.26 189.182 148.511 190.037 147.924C190.891 147.338 191.853 146.925 192.867 146.711Z" fill="#364261"/>
<path d="M138.491 274.396C138.435 274.396 138.381 274.378 138.335 274.346C138.29 274.313 138.255 274.267 138.237 274.215L127.126 194.271L104.871 274.28C104.831 274.338 104.769 274.378 104.699 274.391C104.629 274.403 104.557 274.388 104.498 274.347C104.44 274.307 104.4 274.245 104.387 274.175C104.374 274.106 104.389 274.033 104.429 273.975L126.985 193.528C127.014 193.487 127.053 193.455 127.098 193.435C127.144 193.415 127.194 193.408 127.243 193.414C127.292 193.421 127.338 193.441 127.377 193.472C127.415 193.504 127.444 193.546 127.46 193.593L138.745 274.04C138.759 274.08 138.763 274.123 138.757 274.166C138.75 274.208 138.734 274.248 138.71 274.283C138.685 274.318 138.652 274.346 138.614 274.366C138.576 274.385 138.534 274.396 138.491 274.396Z" fill="#E6E6E6"/>
<path d="M122.506 274.396C122.468 274.396 122.43 274.388 122.395 274.372C122.36 274.356 122.328 274.333 122.303 274.303C122.278 274.274 122.259 274.24 122.248 274.203C122.238 274.166 122.235 274.127 122.24 274.089L126.941 193.642C126.951 193.571 126.988 193.508 127.045 193.465C127.102 193.422 127.174 193.404 127.245 193.414C127.315 193.424 127.379 193.462 127.421 193.519C127.464 193.576 127.483 193.647 127.472 193.718L122.772 274.165C122.763 274.229 122.731 274.288 122.682 274.33C122.633 274.372 122.571 274.396 122.506 274.396Z" fill="#E6E6E6"/>
<path d="M163.463 178.248C163.641 178.952 163.595 179.694 163.331 180.371C163.068 181.047 162.6 181.625 161.993 182.024C161.808 182.146 161.612 182.25 161.407 182.334L111.497 202.88C110.64 203.232 109.679 203.23 108.824 202.874C107.969 202.518 107.291 201.837 106.938 200.981C106.875 200.828 106.823 200.671 106.782 200.51C106.576 199.696 106.67 198.834 107.048 198.084C107.425 197.333 108.061 196.744 108.838 196.424L158.748 175.878C158.76 175.873 158.772 175.869 158.784 175.866C159.245 175.681 159.741 175.597 160.238 175.62C160.734 175.642 161.22 175.771 161.663 175.996C162.106 176.221 162.496 176.539 162.806 176.927C163.117 177.316 163.34 177.766 163.463 178.248Z" fill="#E6E6E6"/>
<path d="M112.198 189.668C112.578 189.571 112.98 189.629 113.317 189.83C113.654 190.03 113.897 190.355 113.994 190.735L114.987 194.639C115.083 195.018 115.025 195.421 114.825 195.758C114.625 196.094 114.299 196.338 113.919 196.434C113.54 196.531 113.137 196.473 112.801 196.272C112.464 196.072 112.221 195.746 112.124 195.367L111.131 191.463C111.083 191.275 111.073 191.08 111.101 190.888C111.129 190.696 111.194 190.511 111.293 190.344C111.392 190.178 111.523 190.032 111.678 189.916C111.834 189.8 112.01 189.716 112.198 189.668Z" fill="#E6E6E6"/>
<path d="M109.203 189.875L114.929 188.419C115.17 188.358 115.426 188.395 115.641 188.522C115.855 188.65 116.01 188.857 116.071 189.098C116.133 189.34 116.096 189.596 115.968 189.81C115.841 190.025 115.634 190.179 115.392 190.241L109.667 191.697C109.547 191.728 109.423 191.734 109.3 191.716C109.178 191.699 109.061 191.657 108.955 191.594C108.849 191.531 108.756 191.448 108.682 191.349C108.608 191.25 108.555 191.138 108.524 191.018C108.463 190.776 108.5 190.52 108.627 190.306C108.754 190.092 108.962 189.937 109.203 189.875Z" fill="#E6E6E6"/>
<path d="M106.998 201.231C106.68 200.578 106.574 199.843 106.693 199.126C106.813 198.41 107.153 197.749 107.666 197.235C108.505 197.252 109.324 197.499 110.031 197.951C110.738 198.403 111.307 199.041 111.676 199.795C112.104 200.667 112.241 201.654 112.064 202.609C111.65 202.884 111.182 203.067 110.691 203.146C110.2 203.226 109.698 203.199 109.219 203.069C108.739 202.938 108.293 202.707 107.91 202.39C107.527 202.073 107.216 201.678 106.998 201.231Z" fill="#CCCCCC"/>
<path d="M188.626 278.629C188.641 278.242 186.595 277.849 184.055 277.75C181.515 277.651 179.444 277.884 179.429 278.27C179.414 278.657 181.461 279.05 184 279.149C186.54 279.248 188.611 279.015 188.626 278.629Z" fill="#E6E6E6"/>
<path d="M217.754 281.342C217.769 280.955 215.723 280.561 213.183 280.462C210.643 280.363 208.572 280.596 208.557 280.983C208.542 281.369 210.589 281.763 213.128 281.862C215.668 281.961 217.739 281.728 217.754 281.342Z" fill="#3F3D56"/>
<path d="M176.836 283.162C176.851 282.776 174.804 282.382 172.265 282.283C169.725 282.184 167.654 282.417 167.639 282.804C167.624 283.19 169.671 283.584 172.21 283.683C174.75 283.782 176.821 283.549 176.836 283.162Z" fill="#FF6584"/>
<path d="M208.249 287.54C208.264 287.154 206.218 286.76 203.678 286.661C201.138 286.562 199.068 286.795 199.052 287.181C199.037 287.568 201.084 287.961 203.623 288.06C206.163 288.159 208.234 287.926 208.249 287.54Z" fill="#FF6584"/>
<path d="M162.518 284.215C162.52 283.868 161.606 283.581 160.477 283.576C159.348 283.57 158.431 283.848 158.43 284.196C158.428 284.543 159.342 284.83 160.471 284.835C161.6 284.841 162.517 284.563 162.518 284.215Z" fill="#E6E6E6"/>
<path d="M173.82 286.823C173.821 286.475 172.908 286.189 171.779 286.183C170.65 286.178 169.733 286.455 169.731 286.803C169.73 287.151 170.644 287.437 171.773 287.442C172.902 287.448 173.818 287.17 173.82 286.823Z" fill="#E6E6E6"/>
<path d="M155.342 287.803C155.344 287.455 154.43 287.168 153.301 287.163C152.172 287.158 151.255 287.435 151.254 287.783C151.252 288.131 152.166 288.417 153.295 288.422C154.424 288.428 155.341 288.15 155.342 287.803Z" fill="#3F3D56"/>
<path d="M194.187 283.347C194.189 282.999 193.275 282.713 192.146 282.708C191.017 282.702 190.101 282.98 190.099 283.327C190.097 283.675 191.011 283.962 192.14 283.967C193.269 283.972 194.186 283.695 194.187 283.347Z" fill="#E6E6E6"/>
<path d="M180.997 280.812C180.998 280.464 180.085 280.178 178.956 280.172C177.827 280.167 176.91 280.444 176.908 280.792C176.907 281.14 177.821 281.426 178.95 281.431C180.079 281.437 180.995 281.159 180.997 280.812Z" fill="#FF6584"/>
<path d="M202.924 279.409C202.926 279.061 202.012 278.775 200.883 278.769C199.754 278.764 198.837 279.041 198.836 279.389C198.834 279.737 199.748 280.023 200.877 280.029C202.006 280.034 202.922 279.756 202.924 279.409Z" fill="#3F3D56"/>
<path d="M186.26 286.943C186.261 286.595 185.348 286.309 184.219 286.304C183.09 286.298 182.173 286.576 182.171 286.923C182.17 287.271 183.083 287.557 184.212 287.563C185.341 287.568 186.258 287.291 186.26 286.943Z" fill="#3F3D56"/>
<path d="M334.88 0H64.3315C63.4284 0.000991744 62.5626 0.360176 61.924 0.998745C61.2855 1.63731 60.9263 2.50311 60.9253 3.40619V286.12C60.9272 287.022 61.2867 287.888 61.9251 288.526C62.5635 289.164 63.4287 289.524 64.3315 289.526H334.88C335.783 289.525 336.649 289.166 337.287 288.527C337.926 287.889 338.285 287.023 338.286 286.12V3.40619C338.285 2.50311 337.926 1.63731 337.287 0.998745C336.649 0.360176 335.783 0.00099303 334.88 0ZM337.313 286.12C337.313 286.765 337.056 287.384 336.6 287.84C336.144 288.296 335.525 288.552 334.88 288.553H64.3315C63.6863 288.552 63.0676 288.296 62.6114 287.84C62.1551 287.384 61.8987 286.765 61.8985 286.12V3.40619C61.8995 2.76124 62.1562 2.14302 62.6123 1.68697C63.0683 1.23093 63.6865 0.974256 64.3315 0.973196H334.88C335.525 0.974256 336.143 1.23093 336.599 1.68697C337.055 2.14302 337.312 2.76124 337.313 3.40619V286.12ZM248.995 0.481735C248.723 0.316291 248.45 0.155711 248.178 0H219.741C219.537 0.321155 219.342 0.647175 219.152 0.973196H249.813C249.54 0.807738 249.268 0.647193 248.995 0.481735ZM60.9253 96.5702V103.821C61.0469 103.83 61.1735 103.83 61.2951 103.835L61.0518 117.771L60.9253 117.703V119.075L61.0275 119.129L60.9253 124.973V145.118H61.8985V93.2857C61.626 94.3368 61.3016 95.4316 60.9253 96.5702ZM248.995 0.481735C248.723 0.316291 248.45 0.155711 248.178 0H219.741C219.537 0.321155 219.342 0.647175 219.152 0.973196H249.813C249.54 0.807738 249.268 0.647193 248.995 0.481735Z" fill="#22293C"/>
<path d="M300.969 28.6217C303.656 28.6217 305.835 26.4432 305.835 23.7558C305.835 21.0683 303.656 18.8898 300.969 18.8898C298.282 18.8898 296.103 21.0683 296.103 23.7558C296.103 26.4432 298.282 28.6217 300.969 28.6217Z" fill="#364261"/>
<path d="M238.685 45.166C239.222 45.166 239.658 44.7303 239.658 44.1928C239.658 43.6553 239.222 43.2196 238.685 43.2196C238.147 43.2196 237.711 43.6553 237.711 44.1928C237.711 44.7303 238.147 45.166 238.685 45.166Z" fill="#364261"/>
<path d="M189.052 64.1434C189.589 64.1434 190.025 63.7077 190.025 63.1702C190.025 62.6327 189.589 62.197 189.052 62.197C188.514 62.197 188.078 62.6327 188.078 63.1702C188.078 63.7077 188.514 64.1434 189.052 64.1434Z" fill="#364261"/>
<path d="M134.066 39.3269C134.603 39.3269 135.039 38.8912 135.039 38.3537C135.039 37.8162 134.603 37.3805 134.066 37.3805C133.528 37.3805 133.093 37.8162 133.093 38.3537C133.093 38.8912 133.528 39.3269 134.066 39.3269Z" fill="#FF6584"/>
<path d="M157.423 14.9969C157.96 14.9969 158.396 14.5612 158.396 14.0237C158.396 13.4863 157.96 13.0505 157.423 13.0505C156.885 13.0505 156.449 13.4863 156.449 14.0237C156.449 14.5612 156.885 14.9969 157.423 14.9969Z" fill="white"/>
<path d="M319.946 9.64439C320.484 9.64439 320.92 9.20868 320.92 8.67119C320.92 8.13371 320.484 7.698 319.946 7.698C319.409 7.698 318.973 8.13371 318.973 8.67119C318.973 9.20868 319.409 9.64439 319.946 9.64439Z" fill="white"/>
<path d="M269.827 26.1887C270.364 26.1887 270.8 25.753 270.8 25.2155C270.8 24.678 270.364 24.2423 269.827 24.2423C269.289 24.2423 268.854 24.678 268.854 25.2155C268.854 25.753 269.289 26.1887 269.827 26.1887Z" fill="white"/>
<path d="M327.245 42.2464C327.783 42.2464 328.219 41.8107 328.219 41.2732C328.219 40.7358 327.783 40.3 327.245 40.3C326.708 40.3 326.272 40.7358 326.272 41.2732C326.272 41.8107 326.708 42.2464 327.245 42.2464Z" fill="white"/>
<path d="M156.45 58.3042C156.987 58.3042 157.423 57.8685 157.423 57.331C157.423 56.7935 156.987 56.3578 156.45 56.3578C155.912 56.3578 155.476 56.7935 155.476 57.331C155.476 57.8685 155.912 58.3042 156.45 58.3042Z" fill="white"/>
<path d="M82.0001 55.3846C82.5375 55.3846 82.9732 54.9489 82.9732 54.4114C82.9732 53.8739 82.5375 53.4382 82.0001 53.4382C81.4626 53.4382 81.0269 53.8739 81.0269 54.4114C81.0269 54.9489 81.4626 55.3846 82.0001 55.3846Z" fill="#FF6584"/>
<path d="M118.514 65.6455L117.596 65.7253L117.389 66.6231L117.029 65.775L116.111 65.8552L116.806 65.2509L116.446 64.4027L117.236 64.8772L117.931 64.2728L117.724 65.1706L118.514 65.6455Z" fill="white"/>
<path d="M235.784 14.0661L234.866 14.1459L234.659 15.0436L234.299 14.1955L233.381 14.2758L234.076 13.6714L233.716 12.8233L234.506 13.2977L235.201 12.6934L234.994 13.5911L235.784 14.0661Z" fill="white"/>
<path d="M291.256 53.4805L290.338 53.5603L290.131 54.4581L289.771 53.6099L288.853 53.6902L289.549 53.0859L289.189 52.2377L289.978 52.7121L290.674 52.1078L290.466 53.0056L291.256 53.4805Z" fill="white"/>
<path d="M188.097 42.2888L187.18 42.3686L186.972 43.2664L186.612 42.4183L185.695 42.4986L186.39 41.8942L186.03 41.0461L186.82 41.5205L187.515 40.9161L187.308 41.8139L188.097 42.2888Z" fill="white"/>
<path d="M144.79 85.596L143.873 85.6758L143.665 86.5735L143.305 85.7254L142.387 85.8057L143.083 85.2013L142.723 84.3532L143.512 84.8276L144.208 84.2233L144.001 85.121L144.79 85.596Z" fill="white"/>
<path d="M328.238 84.6228L327.32 84.7026L327.113 85.6004L326.752 84.7523L325.835 84.8325L326.53 84.2282L326.17 83.38L326.96 83.8545L327.655 83.2501L327.448 84.1479L328.238 84.6228Z" fill="white"/>
<path d="M92.7241 28.1774L91.8064 28.2572L91.5991 29.155L91.239 28.3068L90.3213 28.3871L91.0166 27.7828L90.6566 26.9346L91.4463 27.409L92.1417 26.8047L91.9344 27.7025L92.7241 28.1774Z" fill="white"/>
<path d="M199.827 174.991L201.416 150.38C201.486 149.338 201.964 148.365 202.745 147.671C203.527 146.978 204.55 146.619 205.593 146.673C206.133 146.701 206.661 146.838 207.146 147.077C207.631 147.316 208.062 147.651 208.414 148.062C208.765 148.473 209.029 148.951 209.189 149.467C209.35 149.983 209.403 150.527 209.347 151.064L206.913 176.578L206.087 192.144C206.729 192.456 207.259 192.958 207.605 193.582C207.951 194.205 208.097 194.92 208.023 195.63C207.948 196.339 207.657 197.009 207.189 197.547C206.722 198.085 206.099 198.466 205.407 198.639C204.715 198.811 203.986 198.766 203.321 198.51C202.655 198.254 202.084 197.799 201.686 197.207C201.288 196.616 201.081 195.916 201.095 195.202C201.108 194.489 201.341 193.797 201.761 193.221L199.827 174.991Z" fill="#A0616A"/>
<path d="M199.46 155.878C199.286 155.689 199.18 155.447 199.156 155.191C199.133 154.935 199.195 154.679 199.331 154.461C199.495 154.189 199.569 153.873 199.545 153.557C199.539 153.496 199.53 153.435 199.516 153.375C199.427 153.017 199.425 152.642 199.511 152.282C199.597 151.923 199.769 151.589 200.011 151.31C200.823 150.404 201.25 149.003 201.458 147.747C201.605 146.362 201.918 144.999 202.392 143.688C203.185 141.843 204.979 140.237 207.317 141.121C208.306 141.512 209.13 142.232 209.65 143.159C210.762 145.084 210.693 147.361 210.606 149.538L211.061 148.693C210.925 151.069 211.27 153.448 212.075 155.688C211.551 155.566 211.153 156.262 211.305 156.778C211.525 157.27 211.871 157.697 212.307 158.015C212.801 158.48 213.257 159.161 212.755 159.827C212.63 159.982 212.475 160.111 212.298 160.204C212.122 160.297 211.928 160.352 211.729 160.366C207.974 160.718 204.186 160.289 200.605 159.106C199.81 158.843 198.96 158.487 198.568 157.747C198.176 157.007 198.623 155.836 199.46 155.878Z" fill="#F2F2F2"/>
<path d="M232.292 281.398H236.631L238.695 264.663H232.292V281.398Z" fill="#A0616A"/>
<path d="M230.876 278.427L237.807 278.013V280.983L244.397 285.534C244.723 285.759 244.968 286.082 245.097 286.456C245.226 286.83 245.232 287.235 245.114 287.613C244.997 287.99 244.761 288.32 244.443 288.555C244.124 288.789 243.739 288.916 243.343 288.916H235.091L233.669 285.978L233.113 288.916H230.002L230.876 278.427Z" fill="#2F2E41"/>
<path d="M208.965 277.577L213.006 279.156L221.022 264.322L215.058 261.99L208.965 277.577Z" fill="#A0616A"/>
<path d="M208.729 274.294L215.335 276.432L214.254 279.198L218.735 285.836C218.956 286.164 219.067 286.554 219.051 286.949C219.035 287.345 218.893 287.724 218.646 288.033C218.399 288.342 218.06 288.564 217.677 288.666C217.295 288.769 216.891 288.746 216.522 288.602L208.836 285.598L208.581 282.344L206.994 284.878L204.096 283.745L208.729 274.294Z" fill="#2F2E41"/>
<path d="M211.694 173.204H231.936C231.936 173.204 239.559 227.644 239.581 227.743C239.603 227.843 235.279 229.415 237.244 231.38L239.21 233.346C240.782 234.918 238.043 240.291 238.043 240.291L241.175 272.261H228.237L221.914 206.223L230.468 237.883L219.323 272.261L211.301 267.544L209.728 263.22L212.852 260.097C212.852 260.097 213.659 255.402 213.659 252.629C213.659 249.855 211.301 252.214 213.659 249.855C214.68 248.835 217.552 236.314 217.552 236.314L208.156 206.223L205.917 192.79C205.341 189.328 205.859 185.772 207.399 182.618C208.644 180.065 210.213 176.721 211.694 173.204Z" fill="#2F2E41"/>
<path d="M210.514 139.791L211.86 135.756C212.159 134.858 212.72 134.07 213.47 133.493C214.221 132.916 215.126 132.576 216.071 132.517L217.266 132.443C218.33 132.377 219.384 132.67 220.261 133.276C221.137 133.882 221.785 134.765 222.099 135.783C222.374 136.684 222.912 137.481 223.644 138.075C224.376 138.668 225.268 139.029 226.206 139.112C229.7 139.409 234.886 140.466 234.886 144.115C234.886 149.618 228.989 164.163 230.169 165.342C231.348 166.521 234.1 171.381 232.527 172.811C232.118 173.183 232.448 174.975 232.579 176.258C232.817 178.583 216.411 173.444 211.694 174.776C206.977 176.108 209.335 166.128 208.549 165.342C207.811 164.442 207.153 163.48 206.583 162.466C206.305 161.999 206.109 161.487 206.003 160.954L204.65 154.102C204.627 153.987 204.609 153.876 204.595 153.76C204.416 152.294 203.369 142.425 207.37 140.971C211.694 139.398 210.514 139.791 210.514 139.791Z" fill="#F2F2F2"/>
<path d="M228.833 175.983L228.214 151.329C228.191 150.285 228.579 149.273 229.295 148.512C230.012 147.751 230.998 147.303 232.043 147.263C232.583 147.243 233.121 147.332 233.626 147.527C234.13 147.721 234.59 148.016 234.976 148.394C235.363 148.772 235.668 149.225 235.874 149.724C236.08 150.224 236.182 150.761 236.174 151.301L236.032 176.931L236.602 192.508C237.269 192.761 237.842 193.214 238.242 193.804C238.643 194.394 238.852 195.093 238.842 195.806C238.831 196.519 238.601 197.212 238.183 197.79C237.765 198.368 237.18 198.804 236.506 199.037C235.832 199.271 235.102 199.291 234.416 199.096C233.73 198.9 233.121 198.498 232.671 197.944C232.222 197.391 231.954 196.712 231.903 196C231.853 195.289 232.023 194.579 232.39 193.967L228.833 175.983Z" fill="#A0616A"/>
<path d="M226.075 156.41C225.885 156.237 225.757 156.006 225.711 155.753C225.665 155.5 225.703 155.239 225.82 155.01C225.958 154.725 226.004 154.403 225.952 154.091C225.941 154.03 225.926 153.971 225.907 153.912C225.785 153.563 225.75 153.19 225.804 152.824C225.857 152.458 225.999 152.111 226.215 151.811C226.943 150.836 227.242 149.402 227.337 148.133C227.359 146.74 227.55 145.354 227.904 144.006C228.529 142.098 230.173 140.338 232.581 141.009C233.6 141.31 234.485 141.953 235.086 142.831C236.366 144.648 236.501 146.922 236.609 149.098L236.987 148.215C237.064 150.594 237.62 152.933 238.622 155.092C238.09 155.018 237.755 155.746 237.953 156.246C238.216 156.717 238.599 157.111 239.062 157.389C239.595 157.808 240.11 158.445 239.67 159.153C239.559 159.32 239.416 159.461 239.248 159.57C239.081 159.678 238.893 159.751 238.696 159.783C234.987 160.468 231.177 160.38 227.504 159.523C226.688 159.332 225.81 159.053 225.353 158.351C224.896 157.649 225.238 156.443 226.075 156.41Z" fill="#F2F2F2"/>
<path d="M215.931 133.11C220.707 133.11 224.579 129.238 224.579 124.462C224.579 119.686 220.707 115.814 215.931 115.814C211.155 115.814 207.283 119.686 207.283 124.462C207.283 129.238 211.155 133.11 215.931 133.11Z" fill="#A0616A"/>
<path d="M207.76 137.602C207.765 136.59 209.094 136.059 210.057 136.376C211.018 136.695 211.709 137.512 212.482 138.163C213.256 138.818 214.329 139.34 215.254 138.932C216.131 138.544 216.486 137.505 217.143 136.808C217.937 136.068 218.975 135.646 220.059 135.622C220.037 135.523 220.015 135.424 220.002 135.326C219.914 134.805 219.892 134.275 219.937 133.748C220.158 134.199 220.448 134.612 220.797 134.973C221.017 135.202 221.261 135.407 221.524 135.585C222.611 135.67 223.705 135.587 224.768 135.341C226.037 134.966 227.226 133.844 227.127 132.519C227.047 132.032 226.853 131.57 226.56 131.172C226.267 130.774 225.884 130.452 225.442 130.231C224.589 129.738 227.58 127.549 226.689 127.13C225.832 126.752 225.061 126.205 224.421 125.521C223.782 124.837 223.287 124.031 222.967 123.151C222.707 122.369 222.637 121.537 222.761 120.723C222.885 119.909 223.201 119.135 223.683 118.467C224.47 118.368 221.355 118.742 222.101 118.469C222.013 117.948 221.976 118.823 222.022 118.298C222.242 118.75 222.549 117.756 222.895 118.117C223.563 117.779 224.084 117.209 224.361 116.514C224.932 114.993 223.964 114.695 222.709 113.664C221.756 112.883 220.631 112.339 219.427 112.078C218.223 111.817 216.975 111.845 215.784 112.161C214.593 112.477 213.494 113.071 212.578 113.894C211.662 114.717 210.954 115.746 210.513 116.897C208.61 115.945 206.161 116.842 204.83 118.506C203.504 120.172 203.102 122.397 203.087 124.526C203.064 129.298 204.718 133.926 207.76 137.602Z" fill="#2F2E41"/>
<path d="M176.372 285.08L172.321 285.079L170.394 269.455L176.372 269.456L176.372 285.08Z" fill="#FFB6B6"/>
<path d="M176.514 289.305L164.058 289.305V289.147C164.058 287.861 164.569 286.628 165.478 285.719C166.387 284.81 167.621 284.299 168.906 284.299L171.182 282.573L175.427 284.299H176.515L176.514 289.305Z" fill="#2F2E41"/>
<path d="M194.782 285.08L190.731 285.079L188.804 269.455L194.783 269.456L194.782 285.08Z" fill="#FFB6B6"/>
<path d="M194.924 289.305L182.468 289.305V289.147C182.468 287.861 182.979 286.628 183.888 285.719C184.797 284.81 186.031 284.299 187.316 284.299L189.592 282.573L193.837 284.299H194.924L194.924 289.305Z" fill="#2F2E41"/>
<path d="M166.524 184.769C166.524 184.769 159.978 192.888 161.247 194.994C162.516 197.099 164.562 196.37 162.516 198.575C160.47 200.781 159.651 200.806 161.083 202.43C162.516 204.054 163.76 239.54 163.76 239.54L170.289 276.466L177.474 277.114C177.474 277.114 178.815 272.601 178.848 270.852C178.88 269.102 178.88 270.626 178.88 267.001C178.88 263.375 177.588 266.184 178.848 262.734C180.108 259.284 181.679 249.12 178.848 244.179C176.017 239.237 178.242 243.573 178.242 243.573L180.435 210.084L184.608 244.556C184.608 244.556 184.608 256.42 186.654 265.011L186.992 277.114L195.808 276.777C195.808 276.777 198.109 273.193 197.29 269.102C196.472 265.011 199.745 262.966 199.745 260.92C199.745 258.875 199.573 239.308 199.573 239.308L197.661 198.575C197.661 198.575 199.336 189.326 195.654 185.644C191.972 181.962 166.524 184.769 166.524 184.769Z" fill="#2F2E41"/>
<path d="M174.366 141.568L180.015 135.207L188.943 136.199L194.658 144.198C200.975 145.651 202.14 150.816 201.031 157.202C198.813 169.974 193.337 178.901 195.826 185.203C199.604 194.768 197.773 202.129 188.729 200.788C179.685 199.447 158.846 190.591 164.72 184.717C170.594 178.842 168.797 171.338 168.797 171.338L169.466 153.306C168.41 147.579 168.573 142.168 174.366 141.568Z" fill="#364261"/>
<path d="M171.652 163.41L165.358 159.351C161.33 162.115 147.486 175.909 147.486 175.909L133.696 188.552C133.124 188.648 132.586 188.894 132.138 189.263C131.69 189.633 131.348 190.114 131.145 190.659C130.942 191.203 130.886 191.791 130.983 192.364C131.08 192.937 131.326 193.474 131.696 193.921C132.066 194.369 132.548 194.711 133.093 194.913C133.637 195.115 134.225 195.17 134.798 195.073C135.371 194.975 135.907 194.729 136.354 194.358C136.802 193.987 137.143 193.505 137.344 192.96L154.474 177.491L171.652 163.41Z" fill="#FFB6B6"/>
<path d="M179.169 144.213C180.137 144.853 180.953 145.699 181.558 146.691C182.162 147.682 182.541 148.795 182.666 149.949C182.792 151.103 182.662 152.271 182.285 153.37C181.908 154.468 181.294 155.47 180.486 156.303L177.195 159.699C177.195 159.699 161.289 177.889 156.739 179.97L145.35 187.762L139.22 182.923L149.159 172.643C149.159 172.643 162.027 163.227 162.116 159.661C162.171 157.478 165.108 151.198 168.233 146.427C168.804 145.562 169.541 144.819 170.401 144.24C171.26 143.661 172.226 143.257 173.241 143.052C174.257 142.846 175.304 142.843 176.321 143.042C177.338 143.241 178.306 143.639 179.169 144.213Z" fill="#364261"/>
<path d="M194.786 126.938C196.498 122.137 193.994 116.858 189.194 115.146C184.393 113.435 179.114 115.939 177.402 120.739C175.69 125.54 178.194 130.819 182.995 132.531C187.795 134.242 193.075 131.738 194.786 126.938Z" fill="#FFB6B6"/>
<path d="M181.316 113.319C181.703 112.643 182.238 112.063 182.88 111.622C183.188 111.442 183.531 111.329 183.886 111.29C184.241 111.252 184.601 111.288 184.941 111.398C185.281 111.508 185.594 111.688 185.859 111.927C186.125 112.166 186.337 112.458 186.482 112.785C186.487 112.341 186.598 111.905 186.805 111.513C187.331 112.044 187.939 112.488 188.604 112.829L187.636 110.668C191.307 110.39 193.898 111.4 195.062 114.112C195.395 114.888 196.649 114.876 197.016 115.685C197.383 116.495 196.957 117.791 196.102 117.864C197.746 117.835 197.241 119.221 197.724 120.889C198.207 122.557 197.934 124.434 197.393 126.155C196.692 128.387 194.723 129.849 192.8 130.991C191.543 131.738 189.04 132.871 189.027 132.878C182.114 136.506 177.706 129.105 179.352 121.799C179.724 120.149 181.072 118.36 180.106 117.123C179.354 116.16 177.929 116.338 176.735 116.592C177.2 114.991 180.416 114.712 181.316 113.319Z" fill="#2F2E41"/>
<path d="M297.26 279.253C297.275 278.866 295.032 278.465 292.25 278.357C289.468 278.248 287.201 278.474 287.185 278.86C287.17 279.247 289.414 279.648 292.196 279.756C294.978 279.865 297.245 279.639 297.26 279.253Z" fill="#E6E6E6"/>
<path d="M329.175 282.075C329.19 281.688 326.947 281.287 324.165 281.178C321.383 281.07 319.116 281.295 319.101 281.682C319.085 282.068 321.329 282.469 324.111 282.578C326.893 282.686 329.16 282.461 329.175 282.075Z" fill="#3F3D56"/>
<path d="M284.364 283.745C284.379 283.358 282.136 282.957 279.354 282.848C276.572 282.74 274.304 282.965 274.289 283.352C274.274 283.738 276.517 284.139 279.299 284.248C282.081 284.356 284.349 284.131 284.364 283.745Z" fill="#FF6584"/>
<path d="M318.787 288.239C318.802 287.852 316.559 287.451 313.777 287.342C310.995 287.234 308.728 287.459 308.713 287.846C308.698 288.232 310.941 288.633 313.723 288.742C316.505 288.85 318.772 288.625 318.787 288.239Z" fill="#FF6584"/>
<path d="M268.683 284.744C268.686 284.396 267.686 284.106 266.449 284.095C265.212 284.085 264.207 284.359 264.204 284.707C264.202 285.054 265.202 285.345 266.438 285.355C267.675 285.365 268.68 285.092 268.683 284.744Z" fill="#E6E6E6"/>
<path d="M281.073 287.394C281.076 287.047 280.076 286.756 278.839 286.746C277.602 286.736 276.597 287.009 276.595 287.357C276.592 287.705 277.592 287.995 278.829 288.005C280.065 288.016 281.07 287.742 281.073 287.394Z" fill="#E6E6E6"/>
<path d="M260.84 288.305C260.843 287.957 259.843 287.667 258.606 287.656C257.369 287.646 256.364 287.92 256.361 288.268C256.359 288.615 257.359 288.906 258.595 288.916C259.832 288.926 260.837 288.653 260.84 288.305Z" fill="#3F3D56"/>
<path d="M303.372 283.993C303.375 283.645 302.375 283.355 301.138 283.345C299.901 283.334 298.897 283.608 298.894 283.956C298.891 284.304 299.891 284.594 301.128 284.604C302.364 284.614 303.369 284.341 303.372 283.993Z" fill="#E6E6E6"/>
<path d="M288.915 281.408C288.917 281.06 287.917 280.77 286.681 280.76C285.444 280.749 284.439 281.023 284.436 281.371C284.433 281.719 285.433 282.009 286.67 282.019C287.907 282.029 288.912 281.756 288.915 281.408Z" fill="#FF6584"/>
<path d="M312.925 280.087C312.927 279.74 311.927 279.449 310.691 279.439C309.454 279.429 308.449 279.702 308.446 280.05C308.443 280.398 309.443 280.688 310.68 280.698C311.917 280.709 312.922 280.435 312.925 280.087Z" fill="#3F3D56"/>
<path d="M294.699 287.561C294.702 287.213 293.702 286.923 292.465 286.912C291.229 286.902 290.224 287.176 290.221 287.523C290.218 287.871 291.218 288.161 292.455 288.172C293.691 288.182 294.696 287.908 294.699 287.561Z" fill="#3F3D56"/>
<path d="M109.311 279.115C109.326 278.729 107.279 278.335 104.74 278.236C102.2 278.137 100.129 278.37 100.114 278.757C100.099 279.143 102.145 279.537 104.685 279.636C107.225 279.735 109.296 279.502 109.311 279.115Z" fill="#E6E6E6"/>
<path d="M138.439 281.828C138.454 281.442 136.407 281.048 133.868 280.949C131.328 280.85 129.257 281.083 129.242 281.469C129.227 281.856 131.273 282.249 133.813 282.349C136.353 282.448 138.423 282.215 138.439 281.828Z" fill="#3F3D56"/>
<path d="M97.5203 283.649C97.5354 283.262 95.4889 282.869 92.9493 282.77C90.4097 282.671 88.3387 282.904 88.3237 283.29C88.3086 283.677 90.3551 284.07 92.8947 284.169C95.4343 284.268 97.5052 284.035 97.5203 283.649Z" fill="#FF6584"/>
<path d="M128.934 288.027C128.949 287.64 126.902 287.247 124.363 287.148C121.823 287.049 119.752 287.282 119.737 287.668C119.722 288.055 121.768 288.448 124.308 288.547C126.848 288.646 128.919 288.413 128.934 288.027Z" fill="#FF6584"/>
<path d="M83.2026 284.702C83.2043 284.354 82.2904 284.068 81.1614 284.063C80.0324 284.057 79.1158 284.335 79.1141 284.682C79.1124 285.03 80.0263 285.316 81.1553 285.322C82.2844 285.327 83.201 285.05 83.2026 284.702Z" fill="#E6E6E6"/>
<path d="M94.5044 287.309C94.5061 286.962 93.5922 286.675 92.4632 286.67C91.3342 286.664 90.4175 286.942 90.4159 287.29C90.4142 287.637 91.3281 287.924 92.4571 287.929C93.5861 287.935 94.5027 287.657 94.5044 287.309Z" fill="#E6E6E6"/>
<path d="M76.0269 288.289C76.0285 287.941 75.1146 287.655 73.9856 287.65C72.8566 287.644 71.94 287.922 71.9383 288.27C71.9367 288.617 72.8505 288.904 73.9796 288.909C75.1086 288.914 76.0252 288.637 76.0269 288.289Z" fill="#3F3D56"/>
<path d="M114.872 283.834C114.873 283.486 113.96 283.2 112.831 283.194C111.702 283.189 110.785 283.466 110.783 283.814C110.782 284.162 111.696 284.448 112.825 284.454C113.954 284.459 114.87 284.182 114.872 283.834Z" fill="#E6E6E6"/>
<path d="M101.681 281.298C101.683 280.95 100.769 280.664 99.6402 280.659C98.5112 280.653 97.5946 280.931 97.5929 281.278C97.5912 281.626 98.5051 281.912 99.6341 281.918C100.763 281.923 101.68 281.646 101.681 281.298Z" fill="#FF6584"/>
<path d="M123.609 279.895C123.61 279.548 122.696 279.261 121.567 279.256C120.438 279.25 119.522 279.528 119.52 279.876C119.518 280.223 120.432 280.51 121.561 280.515C122.69 280.521 123.607 280.243 123.609 279.895Z" fill="#3F3D56"/>
<path d="M106.944 287.43C106.946 287.082 106.032 286.796 104.903 286.79C103.774 286.785 102.857 287.062 102.856 287.41C102.854 287.758 103.768 288.044 104.897 288.049C106.026 288.055 106.943 287.777 106.944 287.43Z" fill="#3F3D56"/>
<path d="M334.556 247.465C328.136 247.465 321.927 245.172 317.047 240.999C315.419 239.606 313.685 237.184 311.892 233.8C310.748 231.621 310.108 229.212 310.017 226.753C309.927 224.293 310.389 221.844 311.37 219.586C310.425 220.548 309.379 221.406 308.25 222.145L307.68 222.525L307.647 221.841C307.626 221.396 307.615 220.953 307.615 220.523C307.615 217.992 309.529 215.424 308.646 213.084C304.925 203.223 293.122 193.423 310.228 178.162C311.81 176.75 309.697 173.928 309.697 171.792C309.697 150.859 332.441 119.458 347.667 133.829C356.554 142.217 375.071 148.176 383.716 159.844L383.831 160.19L383.493 160.327C381.766 161.053 379.947 161.536 378.087 161.765C380.069 162.169 382.093 162.338 384.115 162.27L384.429 162.259L384.505 162.563C385.258 165.582 385.638 168.681 385.637 171.792L385.636 172.128C385.629 174.491 386.12 176.829 387.077 178.989C388.034 181.149 389.436 183.084 391.19 184.666C393.962 187.193 396.177 190.27 397.694 193.701C399.211 197.131 399.996 200.84 400 204.591C400 209.029 396.984 214.854 394.454 218.96C393.812 220.005 392.943 220.892 391.91 221.554C390.877 222.216 389.707 222.635 388.489 222.78C387.336 222.925 386.164 222.816 385.057 222.458C383.951 222.101 382.936 221.504 382.086 220.711C383.283 223.119 384.844 225.329 386.713 227.263L387.058 227.618L386.63 227.868C382.51 230.27 377.827 231.535 373.059 231.533L372.779 231.532C365.54 231.532 358.668 234.337 353.927 239.227C351.409 241.821 348.399 243.885 345.072 245.3C341.746 246.715 338.171 247.451 334.556 247.465Z" fill="#364261"/>
<path d="M325.056 289.668C324.939 289.668 324.827 289.625 324.739 289.549C324.651 289.472 324.593 289.367 324.577 289.251C324.556 289.107 322.54 274.565 324.351 255.239C326.023 237.391 331.393 211.683 347.481 190.569C347.52 190.519 347.568 190.476 347.623 190.444C347.678 190.411 347.739 190.39 347.802 190.382C347.865 190.373 347.929 190.377 347.991 190.393C348.053 190.409 348.111 190.438 348.161 190.476C348.212 190.515 348.255 190.563 348.287 190.618C348.319 190.674 348.339 190.734 348.348 190.798C348.356 190.861 348.352 190.925 348.336 190.987C348.319 191.048 348.291 191.106 348.252 191.157C332.303 212.088 326.976 237.607 325.315 255.329C323.515 274.543 325.516 288.971 325.536 289.115C325.546 289.184 325.541 289.254 325.521 289.32C325.501 289.387 325.467 289.448 325.422 289.501C325.376 289.553 325.32 289.595 325.257 289.624C325.194 289.653 325.125 289.668 325.056 289.668Z" fill="#3F3D56"/>
<path d="M339.745 219.817C339.643 219.817 339.543 219.784 339.46 219.724C339.377 219.664 339.316 219.579 339.284 219.482C339.252 219.385 339.252 219.28 339.284 219.182C339.316 219.085 339.377 219 339.46 218.94C344.044 215.837 348.996 213.316 354.202 211.435C362.336 208.458 374.704 205.758 387.437 209.811C387.498 209.83 387.554 209.861 387.603 209.902C387.651 209.943 387.691 209.993 387.721 210.05C387.75 210.106 387.768 210.168 387.773 210.231C387.779 210.295 387.771 210.359 387.752 210.419C387.733 210.48 387.702 210.536 387.661 210.585C387.62 210.633 387.569 210.673 387.513 210.703C387.456 210.732 387.395 210.75 387.331 210.755C387.268 210.76 387.204 210.753 387.143 210.734C374.671 206.765 362.527 209.42 354.535 212.346C349.413 214.194 344.54 216.673 340.03 219.724C339.947 219.784 339.847 219.817 339.745 219.817Z" fill="#3F3D56"/>
<path d="M317.238 162.592C317.23 162.49 317.255 162.388 317.309 162.301C317.363 162.214 317.443 162.146 317.538 162.108C317.633 162.069 317.737 162.062 317.837 162.086C317.936 162.111 318.025 162.166 318.091 162.244C321.516 166.593 324.387 171.351 326.638 176.408C330.194 184.306 333.777 196.448 330.652 209.44C330.637 209.502 330.611 209.56 330.573 209.612C330.536 209.663 330.489 209.707 330.434 209.741C330.38 209.774 330.32 209.796 330.257 209.806C330.194 209.816 330.129 209.814 330.067 209.799C330.005 209.784 329.947 209.757 329.896 209.719C329.844 209.682 329.8 209.634 329.767 209.58C329.734 209.526 329.712 209.465 329.702 209.402C329.692 209.339 329.695 209.275 329.71 209.213C332.771 196.487 329.248 184.566 325.754 176.806C323.542 171.83 320.719 167.148 317.35 162.869C317.284 162.791 317.245 162.694 317.238 162.592Z" fill="#3F3D56"/>
<path d="M46.0735 239.227C41.3316 234.337 34.46 231.532 27.2206 231.532L26.9413 231.533C22.1729 231.535 17.4896 230.27 13.3704 227.868L12.9417 227.618L13.287 227.263C15.156 225.329 16.7167 223.119 17.9143 220.711C17.0637 221.504 16.0493 222.101 14.9427 222.458C13.8361 222.816 12.6645 222.925 11.5108 222.78C10.2927 222.635 9.1233 222.216 8.09032 221.554C7.05735 220.892 6.18761 220.005 5.54634 218.96C3.01609 214.854 0 209.029 0 204.591C0.00393708 200.84 0.789319 197.131 2.30609 193.701C3.82286 190.27 6.03775 187.193 8.80957 184.666C10.5644 183.084 11.966 181.149 12.9231 178.989C13.8802 176.829 14.3712 174.491 14.3642 172.128L14.3628 171.792C14.3624 168.681 14.7425 165.582 15.4948 162.563L15.5712 162.259L15.8848 162.27C17.9071 162.338 19.9306 162.169 21.9133 161.765C20.0535 161.536 18.2341 161.053 16.5068 160.327L16.1694 160.19L16.2839 159.844C24.9292 148.176 43.4458 142.217 52.3332 133.829C67.5591 119.458 90.3035 150.859 90.3035 171.792C90.3035 173.928 88.1897 176.75 89.7721 178.162C106.878 193.423 95.0752 203.223 91.3539 213.084C90.471 215.424 92.3855 217.992 92.3855 220.523C92.3855 220.953 92.3745 221.396 92.3529 221.841L92.3199 222.525L91.7496 222.145C90.6212 221.406 89.5753 220.548 88.6297 219.586C89.6107 221.844 90.073 224.293 89.9827 226.753C89.8923 229.212 89.2516 231.621 88.1076 233.8C86.3149 237.184 84.5805 239.606 82.9528 240.999C77.7385 245.461 71.0165 247.763 64.1614 247.434C57.3063 247.104 50.836 244.169 46.0735 239.227Z" fill="#364261"/>
<path d="M74.9442 289.668C75.0607 289.668 75.1733 289.625 75.2613 289.549C75.3493 289.472 75.4068 289.367 75.4232 289.251C75.4438 289.107 77.4601 274.565 75.6492 255.239C73.9769 237.391 68.6065 211.683 52.5186 190.569C52.4802 190.519 52.432 190.476 52.377 190.444C52.3219 190.411 52.2611 190.39 52.1979 190.382C52.1347 190.373 52.0705 190.377 52.0088 190.393C51.9471 190.409 51.8893 190.438 51.8386 190.476C51.7878 190.515 51.7452 190.563 51.7132 190.618C51.6812 190.674 51.6604 190.734 51.652 190.798C51.6435 190.861 51.6477 190.925 51.6641 190.987C51.6806 191.048 51.709 191.106 51.7479 191.157C67.6967 212.088 73.0239 237.607 74.6844 255.329C76.4847 274.543 74.4843 288.971 74.4639 289.115C74.4541 289.184 74.4593 289.254 74.479 289.32C74.4987 289.387 74.5324 289.448 74.5779 289.501C74.6235 289.553 74.6797 289.595 74.7429 289.624C74.8061 289.653 74.8747 289.668 74.9442 289.668Z" fill="#3F3D56"/>
<path d="M60.2548 219.817C60.3571 219.817 60.4569 219.784 60.5397 219.724C60.6226 219.664 60.6842 219.579 60.7159 219.482C60.7476 219.385 60.7476 219.28 60.716 219.182C60.6844 219.085 60.6228 219 60.54 218.94C55.956 215.837 51.0038 213.316 45.7977 211.435C37.6641 208.458 25.2957 205.758 12.5626 209.811C12.4402 209.85 12.3383 209.936 12.2792 210.05C12.2202 210.164 12.2089 210.297 12.2479 210.419C12.2869 210.542 12.3729 210.644 12.487 210.703C12.6011 210.762 12.734 210.773 12.8565 210.734C25.3286 206.765 37.4728 209.42 45.4645 212.346C50.587 214.194 55.4596 216.673 59.9704 219.724C60.053 219.784 60.1526 219.817 60.2548 219.817Z" fill="#3F3D56"/>
<path d="M82.7626 162.592C82.7701 162.49 82.745 162.388 82.691 162.301C82.637 162.214 82.5569 162.146 82.4621 162.108C82.3673 162.069 82.2628 162.062 82.1634 162.086C82.064 162.111 81.975 162.166 81.909 162.244C78.484 166.593 75.613 171.351 73.3621 176.408C69.8064 184.306 66.2231 196.448 69.3481 209.44C69.3628 209.502 69.3896 209.56 69.427 209.612C69.4644 209.663 69.5116 209.707 69.5659 209.741C69.6202 209.774 69.6806 209.796 69.7435 209.806C69.8065 209.816 69.8708 209.814 69.9328 209.799C69.9948 209.784 70.0532 209.757 70.1047 209.719C70.1563 209.682 70.1999 209.634 70.2331 209.58C70.2663 209.526 70.2884 209.465 70.2982 209.402C70.308 209.339 70.3053 209.275 70.2902 209.213C67.2295 196.487 70.752 184.566 74.2458 176.806C76.4586 171.83 79.2815 167.148 82.6498 162.869C82.7158 162.791 82.7553 162.694 82.7626 162.592Z" fill="#3F3D56"/>
<path d="M77.2783 64.1197L27.4414 64.8396L27.4555 65.8128L77.2923 65.0929L77.2783 64.1197Z" fill="#E6E6E6"/>
<path d="M78.306 66.9989C77.7733 66.7374 77.3554 66.289 77.132 65.7393C76.9085 65.1895 76.8952 64.5768 77.0944 64.0178C77.2936 63.4589 77.6915 62.9927 78.2123 62.7082C78.733 62.4236 79.3403 62.3406 79.9183 62.475C80.4963 62.6093 81.0047 62.9516 81.3466 63.4366C81.6885 63.9217 81.84 64.5155 81.7723 65.1051C81.7046 65.6946 81.4223 66.2386 80.9793 66.6335C80.5364 67.0283 79.9636 67.2464 79.3702 67.2462C79.0012 67.2461 78.6372 67.1615 78.306 66.9989ZM78.8969 63.4316C78.7154 63.4936 78.548 63.5909 78.4044 63.718C78.2608 63.8451 78.1439 63.9994 78.0603 64.172C77.9117 64.4762 77.8732 64.8229 77.9514 65.1523C78.0296 65.4818 78.2196 65.7739 78.4892 65.979C78.7587 66.184 79.0909 66.2892 79.4293 66.2766C79.7677 66.264 80.0913 66.1344 80.3448 65.91C80.5984 65.6855 80.7662 65.3801 80.8197 65.0457C80.8733 64.7113 80.8091 64.3687 80.6383 64.0764C80.4675 63.784 80.2006 63.5599 79.883 63.4423C79.5654 63.3247 79.2169 63.321 78.8969 63.4316Z" fill="#E6E6E6"/>
<path d="M12.8254 74.4025C17.6627 74.4025 21.5842 70.4811 21.5842 65.6438C21.5842 60.8064 17.6627 56.885 12.8254 56.885C7.98808 56.885 4.06665 60.8064 4.06665 65.6438C4.06665 70.4811 7.98808 74.4025 12.8254 74.4025Z" fill="#3F3D56"/>
<path d="M305.049 41.7363L305.035 42.7095L354.872 43.4294L354.886 42.4562L305.049 41.7363Z" fill="#E6E6E6"/>
<path d="M302.957 44.8627C302.358 44.8641 301.779 44.645 301.332 44.2472C300.884 43.8494 300.599 43.3008 300.53 42.7059C300.461 42.1111 300.613 41.5117 300.958 41.0221C301.303 40.5325 301.816 40.187 302.399 40.0514C302.982 39.9159 303.595 39.9998 304.121 40.2871C304.646 40.5745 305.047 41.0452 305.248 41.6095C305.448 42.1737 305.434 42.792 305.208 43.3464C304.981 43.9008 304.559 44.3526 304.021 44.6154C303.689 44.7774 303.325 44.8619 302.957 44.8627ZM302.953 40.9678C302.636 40.9678 302.327 41.071 302.074 41.2619C301.821 41.4528 301.636 41.721 301.549 42.0259C301.461 42.3308 301.476 42.6559 301.589 42.9521C301.703 43.2483 301.91 43.4994 302.179 43.6675C302.448 43.8357 302.764 43.9117 303.08 43.8841C303.396 43.8565 303.695 43.7268 303.931 43.5146C304.166 43.3024 304.327 43.0192 304.387 42.7079C304.448 42.3965 304.405 42.0739 304.266 41.7887C304.146 41.5428 303.959 41.3353 303.727 41.1902C303.495 41.0451 303.227 40.9681 302.953 40.9678Z" fill="#E6E6E6"/>
<path d="M369.502 52.019C374.339 52.019 378.26 48.0976 378.26 43.2602C378.26 38.4229 374.339 34.5015 369.502 34.5015C364.664 34.5015 360.743 38.4229 360.743 43.2602C360.743 48.0976 364.664 52.019 369.502 52.019Z" fill="#3F3D56"/>
<path d="M273.088 67.0635L263.495 115.974L264.45 116.161L274.043 67.2509L273.088 67.0635Z" fill="#E6E6E6"/>
<path d="M271.339 64.6352C271.444 64.0457 271.763 63.5157 272.234 63.1462C272.706 62.7767 273.296 62.5936 273.894 62.6318C274.492 62.67 275.054 62.9269 275.474 63.3534C275.895 63.78 276.143 64.3463 276.173 64.9444C276.202 65.5425 276.01 66.1304 275.634 66.5962C275.258 67.0619 274.723 67.3727 274.132 67.4694C273.541 67.5661 272.935 67.4419 272.43 67.1204C271.925 66.7989 271.556 66.3027 271.393 65.7264C271.292 65.3715 271.274 64.9983 271.339 64.6352ZM275.172 65.3262C275.229 65.0141 275.182 64.692 275.04 64.4087C274.897 64.1254 274.666 63.8962 274.381 63.7558C274.097 63.6153 273.775 63.5713 273.463 63.6303C273.151 63.6894 272.867 63.8482 272.654 64.0829C272.44 64.3176 272.309 64.6154 272.28 64.9313C272.251 65.2472 272.325 65.564 272.492 65.8338C272.659 66.1036 272.909 66.3119 273.204 66.427C273.5 66.5422 273.825 66.558 274.13 66.4721C274.394 66.3976 274.631 66.2508 274.815 66.0482C275 65.8457 275.123 65.5955 275.172 65.3262Z" fill="#E6E6E6"/>
<path d="M261.054 139.159C265.891 139.159 269.812 135.237 269.812 130.4C269.812 125.563 265.891 121.641 261.054 121.641C256.216 121.641 252.295 125.563 252.295 130.4C252.295 135.237 256.216 139.159 261.054 139.159Z" fill="#3F3D56"/>
</g>
<defs>
<clipPath id="clip0_14_483">
<rect width="400" height="289.668" fill="white"/>
</clipPath>
</defs>
</svg>
