<svg width="400" height="372" viewBox="0 0 400 372" fill="none" xmlns="http://www.w3.org/2000/svg">
<g clip-path="url(#clip0_8_16)">
<path d="M394.893 295.052C389.328 304.432 381.429 321.103 372.234 334.802C364.498 346.324 355.845 355.746 346.88 356.95C307.571 362.238 251.014 363.659 211.704 368.947C164.84 375.25 118.572 368.379 71.5544 363.41C59.7005 362.155 58.0142 342.476 48.7417 334.802C47.994 334.178 47.1832 333.636 46.323 333.187C34.8398 327.221 24.9072 317.066 21.6883 304.331C17.5607 288.006 24.8846 271.058 33.3026 256.551C41.7161 242.045 51.6758 227.584 53.457 210.825C55.6497 190.223 45.0074 170.553 33.1805 153.712C21.3583 136.866 7.65978 120.564 2.22107 100.603C-7.27292 65.7712 14.6898 25.2546 48.6467 14.9604C48.6467 14.9604 198.498 15.9294 276.801 3.31901C295.631 0.287527 315.821 -3.09924 333.046 5.25233C352.699 14.7805 363.242 37.685 365.136 59.8097C367.03 81.9345 361.89 103.958 358.237 125.852C354.584 147.741 352.509 170.858 360.176 191.645C366.8 209.589 380.041 224.05 389.567 240.582C399.093 257.114 404.631 278.648 394.893 295.052Z" fill="#2F2E41"/>
<path d="M372.234 334.802C364.498 346.324 355.845 355.746 346.88 356.95C307.571 362.238 251.014 363.659 211.704 368.947C164.84 375.25 118.572 368.379 71.5544 363.41C59.7005 362.155 58.0142 342.476 48.7417 334.802H372.234Z" fill="#2F2E41"/>
<path d="M98.189 39.1853L89.3791 282.587V282.592C89.6764 283.011 89.9774 283.429 90.2821 283.848C90.4472 284.08 90.6161 284.307 90.7887 284.538C91.0419 284.891 91.3025 285.24 91.5669 285.589C91.5705 285.594 91.5705 285.598 91.5742 285.602L91.5852 285.616V285.62C99.3119 296.029 108.253 305.439 118.209 313.641V313.737L118.312 313.724C118.433 313.829 118.554 313.925 118.676 314.025C119.553 314.741 120.438 315.447 121.33 316.137C121.766 316.477 122.204 316.813 122.644 317.145V317.149C122.647 317.149 122.647 317.149 122.651 317.153H122.658L122.666 317.162L122.688 317.175C122.699 317.184 122.706 317.188 122.717 317.197C123.055 317.454 123.389 317.708 123.73 317.961C123.833 318.044 123.936 318.118 124.039 318.192C124.219 318.327 124.402 318.462 124.586 318.598C124.765 318.729 124.949 318.864 125.133 318.995C125.863 319.527 126.601 320.051 127.339 320.565C127.522 320.696 127.709 320.823 127.897 320.954C128.08 321.08 128.267 321.207 128.455 321.334V321.347L128.477 321.351L128.484 321.355L128.491 321.364H128.495C129.009 321.713 129.519 322.062 130.037 322.402L130.04 322.407C130.455 322.682 130.87 322.952 131.288 323.223C132.28 323.864 133.278 324.497 134.28 325.112C134.978 325.544 135.679 325.963 136.384 326.377C136.809 326.63 137.239 326.879 137.668 327.128C138.024 327.333 138.384 327.538 138.74 327.739C138.839 327.795 138.935 327.852 139.034 327.905C139.195 327.996 139.361 328.088 139.522 328.175H263.962C264.138 328.079 264.314 327.983 264.49 327.883C264.525 327.871 264.557 327.853 264.586 327.83C264.59 327.83 264.59 327.826 264.593 327.826C264.846 327.686 265.1 327.542 265.353 327.398L265.36 327.394C266.656 326.657 267.941 325.896 269.215 325.112C272.104 323.341 274.941 321.454 277.727 319.453C279.221 318.38 280.699 317.274 282.162 316.137C282.617 315.783 283.072 315.425 283.527 315.063C283.938 314.736 284.346 314.409 284.753 314.077C286.192 312.908 287.613 311.708 289.015 310.478C290.465 309.208 291.894 307.906 293.302 306.572C295.138 304.836 296.937 303.05 298.699 301.214C301.984 297.802 305.135 294.218 308.151 290.463C308.246 290.345 308.342 290.228 308.437 290.105C309.175 289.185 309.903 288.252 310.621 287.308L303.28 39.1853C303.286 37.6784 303.016 36.1835 302.483 34.7783C301.367 31.8986 299.19 29.9395 296.691 29.9395H104.778C102.245 29.9395 100.046 31.9466 98.9452 34.8874C98.9085 34.9835 98.8754 35.0794 98.8424 35.1754C98.4047 36.4649 98.1838 37.8206 98.189 39.1853Z" fill="#22293C"/>
<path d="M278.975 58.0652C284.449 58.0652 288.887 52.7907 288.887 46.2843C288.887 39.7779 284.449 34.5034 278.975 34.5034C273.502 34.5034 269.064 39.7779 269.064 46.2843C269.064 52.7907 273.502 58.0652 278.975 58.0652Z" fill="white"/>
<path d="M173.992 77.8582C190.701 82.3439 209.215 85.0726 228.04 85.8198C230.799 85.9732 233.565 85.954 236.321 85.7623C242.379 85.2423 247.568 83.2991 253.347 82.2372C256.125 81.7282 259.22 81.3559 262.017 80.8058C261.37 79.9875 260.713 79.1792 260.043 78.3809C254.012 78.9009 247.887 80.6033 241.784 81.3942C231.409 82.7408 219.784 81.2382 211.919 77.5325C208.103 75.7344 205.18 73.4901 201.377 71.6837C200.86 71.4128 200.3 71.2376 199.722 71.1665C198.626 71.1329 197.543 71.4197 196.601 71.993C190.221 75.28 180.959 77.9512 172.362 76.4815C171.721 76.9933 172.938 77.5763 173.992 77.8582Z" fill="white"/>
<path d="M177.227 118.918C177.119 118.898 177.012 118.883 176.904 118.864C177.356 118.578 177.782 118.251 178.176 117.886L177.227 118.918Z" fill="white"/>
<path d="M106.777 127.796C111.692 128.197 116.633 128.495 121.6 128.691C125.376 128.899 129.162 128.873 132.935 128.612C141.228 127.897 148.33 125.241 156.241 123.787C163.491 122.457 172.301 121.816 176.904 118.864C165.007 116.763 152.68 121.041 140.413 122.633C130.489 123.879 120.43 123.372 110.676 121.135C109.317 123.315 108.018 125.535 106.777 127.796Z" fill="white"/>
<path d="M209.16 217.957V214.368C209.161 212.997 209.675 211.678 210.597 210.681C211.52 209.684 212.78 209.084 214.122 209.005V194.99H215.289V208.989H220.542V217.925H245.349V320.686H190.482V238.103C190.483 232.945 192.418 227.982 195.892 224.236C199.366 220.489 204.114 218.242 209.16 217.957Z" fill="#2F2E41"/>
<path d="M229.006 238.477H236.302V232.52H229.006V238.477Z" fill="white"/>
<path d="M217.04 238.477H224.336V232.52H217.04V238.477Z" fill="white"/>
<path d="M205.075 238.477H212.371V232.52H205.075V238.477Z" fill="white"/>
<path d="M229.006 253.668H236.302V247.711H229.006V253.668Z" fill="white"/>
<path d="M217.04 253.668H224.336V247.711H217.04V253.668Z" fill="white"/>
<path d="M205.075 253.668H212.371V247.711H205.075V253.668Z" fill="white"/>
<path d="M229.006 268.859H236.302V262.901H229.006V268.859Z" fill="white"/>
<path d="M217.04 268.859H224.336V262.901H217.04V268.859Z" fill="white"/>
<path d="M205.075 268.859H212.371V262.901H205.075V268.859Z" fill="white"/>
<path d="M229.006 284.049H236.302V278.092H229.006V284.049Z" fill="white"/>
<path d="M217.04 284.049H224.336V278.092H217.04V284.049Z" fill="white"/>
<path d="M205.075 284.049H212.371V278.092H205.075V284.049Z" fill="white"/>
<path d="M229.006 299.24H236.302V293.283H229.006V299.24Z" fill="white"/>
<path d="M217.04 299.24H224.336V293.283H217.04V299.24Z" fill="white"/>
<path d="M205.075 299.24H212.371V293.283H205.075V299.24Z" fill="white"/>
<path d="M229.006 314.431H236.302V308.474H229.006V314.431Z" fill="white"/>
<path d="M217.04 314.431H224.336V308.474H217.04V314.431Z" fill="white"/>
<path d="M205.075 314.431H212.371V308.474H205.075V314.431Z" fill="white"/>
<path d="M243.835 188.06V320.685H277.727C279.221 319.763 280.699 318.814 282.161 317.837C282.617 317.534 283.072 317.227 283.527 316.916C283.938 316.635 284.345 316.354 284.753 316.069C286.192 315.065 287.612 314.035 289.015 312.978C290.465 311.888 291.894 310.77 293.302 309.625C295.138 308.134 296.936 306.6 298.698 305.024V167.882H288.923V151.949H279.001V136.757H277.833V151.949H270.554C269.156 151.949 267.816 152.515 266.827 153.524C265.839 154.533 265.283 155.902 265.283 157.328V167.882H263.605C259.343 167.882 255.194 169.288 251.778 171.89C248.361 174.492 245.86 178.15 244.646 182.321C244.434 183.055 244.263 183.8 244.132 184.554C243.934 185.712 243.835 186.885 243.835 188.06Z" fill="#2F2E41"/>
<path d="M273.455 161.183H280.752V155.226H273.455V161.183Z" fill="white"/>
<path d="M98.1887 39.1843L89.3788 282.587V282.591C89.6761 283.01 89.9771 283.43 90.2818 283.849C90.3552 283.954 90.4323 284.056 90.5094 284.16C90.6012 284.284 90.6929 284.411 90.7884 284.539C91.0416 284.891 91.3023 285.239 91.5666 285.588L100.376 39.1843C100.376 39.0682 100.38 38.9558 100.384 38.8396C100.487 36.2209 101.753 34.0405 103.471 33.2912C103.883 33.1065 104.328 33.0108 104.778 33.0102H296.69C298.57 33.0102 300.178 34.6698 300.809 37.0001C300.813 37.0109 300.816 37.0223 300.816 37.0339C301.003 37.7347 301.097 38.458 301.095 39.1843L308.437 295.486C308.738 295.164 309.035 294.842 309.332 294.516C309.766 294.044 310.195 293.564 310.621 293.084L303.279 39.1843C303.286 37.6778 303.016 36.1834 302.483 34.7785C301.367 31.8975 299.19 29.9381 296.69 29.9381H104.778C102.245 29.9381 100.046 31.9462 98.9449 34.8871C98.9081 34.9845 98.8751 35.0781 98.8421 35.1756C98.4045 36.4647 98.1836 37.8201 98.1887 39.1843ZM134.28 325.544C134.977 325.915 135.678 326.274 136.383 326.63C136.809 326.847 137.239 327.061 137.668 327.275C138.024 327.451 138.384 327.627 138.74 327.799C138.839 327.848 138.934 327.896 139.034 327.941C139.195 328.02 139.36 328.099 139.522 328.174H263.962C264.138 328.091 264.314 328.009 264.49 327.923C264.524 327.912 264.556 327.897 264.586 327.878C264.589 327.878 264.589 327.874 264.593 327.874C264.846 327.754 265.099 327.63 265.353 327.507L265.36 327.503C266.656 326.87 267.941 326.217 269.214 325.544H134.28Z" fill="#2F2E41"/>
<path d="M302.188 61.2986H99.2838V63.8987H302.188V61.2986Z" fill="#2F2E41"/>
<path d="M304.256 93.5179H96.4891V96.118H304.256V93.5179Z" fill="#2F2E41"/>
<path d="M270.606 143.972H272.794L265.452 31.1057H263.264L270.606 143.972Z" fill="#2F2E41"/>
<path d="M127.209 144.722H129.397L138.207 31.1057H136.019L127.209 144.722Z" fill="#2F2E41"/>
<path d="M95.3878 148.37L303.889 148.37V140.929L95.3878 140.929V148.37Z" fill="#2F2E41"/>
<path d="M203.273 140.916H193.065C193.065 139.831 193.487 138.789 194.239 138.022C194.991 137.254 196.011 136.823 197.075 136.823H199.262C200.326 136.823 201.346 137.254 202.098 138.022C202.85 138.789 203.273 139.831 203.273 140.916Z" fill="#2F2E41"/>
<path d="M90.4837 290.35C90.5828 290.469 90.6856 290.586 90.7883 290.705C91.0416 291.009 91.3023 291.309 91.5665 291.608C91.5702 291.612 91.5702 291.616 91.5739 291.62L91.5849 291.631V291.635C99.4764 300.721 108.416 308.8 118.209 315.694C118.242 315.72 118.276 315.744 118.312 315.765C118.433 315.855 118.554 315.938 118.675 316.024C119.553 316.638 120.437 317.245 121.329 317.837C121.766 318.129 122.203 318.418 122.643 318.703V318.706C122.647 318.706 122.647 318.706 122.651 318.71H122.658L122.665 318.718L122.688 318.729C122.699 318.736 122.706 318.74 122.717 318.748C123.055 318.969 123.389 319.186 123.73 319.403C123.833 319.474 123.936 319.538 124.038 319.602C124.218 319.718 124.402 319.834 124.585 319.95C124.765 320.063 124.949 320.179 125.132 320.291C125.364 320.434 125.595 320.58 125.826 320.718L125.811 319.482L125.789 317.837L125.683 310.277L125.316 304.238L123.139 268.493L122.794 262.836L122.717 261.562L121.737 245.478L121.403 239.956L120.643 227.518L120.301 221.861L124.94 215.933L124.926 215.72L124.896 215.21L124.878 214.899V214.896L124.489 208.549L124.474 208.279L124.199 203.791V203.784L123.806 197.28L123.557 193.196L123.278 188.611L123.054 184.935L123.002 184.092L122.866 181.859L122.859 181.77L117.042 168.332L116.822 164.709V164.705L116.59 160.906L116.432 158.306L116.106 152.994L115.761 147.344L115.625 145.111L115.144 137.184V137.18L114.876 132.767L114.608 128.346L114.212 121.88L113.951 117.571L113.793 114.971L112.648 96.119L112.596 95.3022L112.486 93.519L112.116 87.4198L120.078 73.4755L119.494 63.8996L119.336 61.2996L117.662 33.8306L117.611 33.0102L117.519 31.4741C110.332 30.6687 104.469 31.2605 100.384 35.052L100.27 61.2996L100.259 63.8996L97.9353 92.6385L97.9317 93.519L97.9206 96.119L96.9772 145.111L96.9662 147.344L95.3511 182.321L95.3401 184.554L94.5031 208.741L94.4701 216.181L90.5093 284.16L90.4837 290.35Z" fill="white"/>
<path d="M121.329 317.837C121.766 318.129 122.203 318.418 122.643 318.703V318.706C122.647 318.706 122.647 318.706 122.651 318.71H122.658L122.665 318.718L122.688 318.729C122.699 318.736 122.706 318.74 122.717 318.748C123.055 318.969 123.389 319.186 123.73 319.403C123.833 319.474 123.936 319.538 124.038 319.602C124.218 319.718 124.402 319.834 124.585 319.95C124.765 320.063 124.949 320.179 125.132 320.291C125.364 320.434 125.595 320.58 125.826 320.718C126.329 321.029 126.833 321.336 127.338 321.64C127.522 321.752 127.709 321.861 127.896 321.973C128.08 322.082 128.267 322.191 128.454 322.299V322.311L128.476 322.314L128.484 322.318L128.491 322.326H128.495C129.009 322.625 129.519 322.925 130.036 323.217L130.04 323.221C130.455 323.457 130.87 323.689 131.288 323.922C132.279 324.472 133.277 325.013 134.28 325.544C134.977 325.915 135.678 326.274 136.383 326.63C136.809 326.847 137.239 327.061 137.668 327.275C138.024 327.451 138.384 327.627 138.74 327.799C138.839 327.848 138.934 327.896 139.034 327.941C139.195 328.02 139.36 328.099 139.522 328.174C139.658 328.237 139.79 328.301 139.926 328.365C140.249 328.522 140.575 328.672 140.898 328.822C141.262 328.99 141.621 329.155 141.985 329.32C143.35 329.942 144.731 330.541 146.115 331.118C151.058 333.185 156.111 334.968 161.249 336.461C161.488 336.532 161.73 336.603 161.972 336.671C164.171 337.3 166.386 337.876 168.616 338.398C172.511 339.312 176.441 340.062 180.407 340.649C180.414 340.649 180.425 340.653 180.433 340.653C180.906 340.724 181.383 340.792 181.857 340.859C181.897 340.867 181.941 340.874 181.985 340.878C181.989 340.882 181.993 340.882 182 340.878H182.004C182.529 340.949 183.054 341.02 183.582 341.088C183.619 341.095 183.656 341.099 183.692 341.103C184.184 341.163 184.68 341.223 185.175 341.279C185.708 341.339 186.24 341.395 186.776 341.451H186.779C187.594 341.534 188.409 341.612 189.224 341.68C189.239 341.68 189.254 341.683 189.268 341.683C189.591 341.713 189.914 341.736 190.237 341.762H190.241C194.04 342.069 197.875 342.222 201.745 342.219C205.948 342.219 210.109 342.041 214.226 341.683C214.241 341.683 214.255 341.68 214.27 341.68C215.147 341.605 216.023 341.522 216.898 341.432C217.13 341.41 217.357 341.384 217.588 341.361C217.632 341.357 217.677 341.354 217.721 341.346C217.79 341.339 217.86 341.331 217.933 341.324C217.97 341.32 218.011 341.316 218.047 341.309C218.352 341.275 218.657 341.241 218.965 341.204C219.306 341.163 219.651 341.121 219.993 341.076C220.334 341.035 220.679 340.99 221.021 340.942C221.094 340.934 221.171 340.927 221.245 340.912C221.494 340.882 221.744 340.848 221.99 340.81C222.111 340.795 222.228 340.777 222.346 340.758C222.584 340.724 222.819 340.691 223.058 340.653C223.065 340.653 223.076 340.649 223.084 340.649C230.58 339.545 237.979 337.842 245.215 335.558H245.218C245.611 335.434 246.004 335.307 246.397 335.18C246.514 335.146 246.632 335.108 246.749 335.067C247.77 334.734 248.784 334.389 249.792 334.033C251.183 333.546 252.565 333.037 253.937 332.505C254.311 332.358 254.682 332.212 255.056 332.066C255.801 331.767 256.543 331.467 257.281 331.16C258.54 330.635 259.79 330.094 261.032 329.537H261.036V329.534C262.016 329.092 262.992 328.642 263.962 328.174C264.138 328.091 264.314 328.009 264.49 327.923C264.524 327.912 264.556 327.897 264.586 327.878C264.589 327.878 264.589 327.874 264.593 327.874C264.846 327.754 265.099 327.63 265.353 327.507L265.36 327.503C266.656 326.87 267.941 326.217 269.214 325.544C270.793 324.712 272.358 323.85 273.909 322.959C275.194 322.221 276.467 321.463 277.727 320.685C279.221 319.763 280.699 318.814 282.161 317.837L121.329 317.837Z" fill="#2F2E41"/>
<path d="M254.381 50.2113C254.787 50.2113 255.115 49.8206 255.115 49.3386C255.115 48.8566 254.787 48.4659 254.381 48.4659C253.976 48.4659 253.647 48.8566 253.647 49.3386C253.647 49.8206 253.976 50.2113 254.381 50.2113Z" fill="white"/>
<path d="M209.774 51.2935C210.18 51.2935 210.509 50.9028 210.509 50.4209C210.509 49.9389 210.18 49.5482 209.774 49.5482C209.369 49.5482 209.04 49.9389 209.04 50.4209C209.04 50.9028 209.369 51.2935 209.774 51.2935Z" fill="white"/>
<path d="M182.243 52.1662C182.649 52.1662 182.978 51.7755 182.978 51.2936C182.978 50.8116 182.649 50.4209 182.243 50.4209C181.838 50.4209 181.509 50.8116 181.509 51.2936C181.509 51.7755 181.838 52.1662 182.243 52.1662Z" fill="white"/>
<path d="M143.523 162.564C143.929 162.564 144.257 162.228 144.257 161.814C144.257 161.4 143.929 161.065 143.523 161.065C143.118 161.065 142.789 161.4 142.789 161.814C142.789 162.228 143.118 162.564 143.523 162.564Z" fill="white"/>
<path d="M188.117 120.409C188.522 120.409 188.851 120.073 188.851 119.659C188.851 119.246 188.522 118.91 188.117 118.91C187.711 118.91 187.383 119.246 187.383 119.659C187.383 120.073 187.711 120.409 188.117 120.409Z" fill="white"/>
<path d="M225.015 158.817C225.42 158.817 225.749 158.482 225.749 158.068C225.749 157.654 225.42 157.319 225.015 157.319C224.609 157.319 224.281 157.654 224.281 158.068C224.281 158.482 224.609 158.817 225.015 158.817Z" fill="white"/>
<path d="M231.255 119.479C231.661 119.479 231.989 119.144 231.989 118.73C231.989 118.316 231.661 117.981 231.255 117.981C230.85 117.981 230.521 118.316 230.521 118.73C230.521 119.144 230.85 119.479 231.255 119.479Z" fill="white"/>
<path d="M280.444 111.612C280.849 111.612 281.178 111.276 281.178 110.863C281.178 110.449 280.849 110.113 280.444 110.113C280.038 110.113 279.71 110.449 279.71 110.863C279.71 111.276 280.038 111.612 280.444 111.612Z" fill="white"/>
<path d="M112.641 264.598L111.539 305.78L112.273 305.8L113.375 264.618L112.641 264.598Z" fill="white"/>
<path d="M101.261 103.131L100.16 178.78L100.894 178.791L101.995 103.142L101.261 103.131Z" fill="white"/>
<path d="M130.037 323.219L131.766 320.004L130.914 319.596L130.235 319.266L127.273 317.839L125.492 316.981L124.758 316.625L124.174 316.344L123.205 317.839L122.717 318.592L122.644 318.704V318.708C122.659 318.714 122.674 318.721 122.688 318.73C122.699 318.738 122.706 318.742 122.717 318.749C123.055 318.97 123.389 319.187 123.73 319.405C123.833 319.476 123.936 319.539 124.039 319.603C124.219 319.719 124.402 319.835 124.586 319.952C124.765 320.064 124.949 320.18 125.133 320.293C125.863 320.75 126.601 321.199 127.339 321.641C127.522 321.754 127.709 321.862 127.897 321.975C128.08 322.083 128.267 322.192 128.455 322.301V322.312L128.477 322.316L128.484 322.319L128.491 322.327H128.495C129.009 322.627 129.519 322.926 130.037 323.219Z" fill="#2F2E41"/>
<path d="M98.1409 62.8618C98.1417 62.1665 98.4127 61.4999 98.8944 61.0083C99.3761 60.5166 100.029 60.2401 100.71 60.2393H123.836C124.518 60.2393 125.172 60.5156 125.653 61.0074C126.135 61.4992 126.406 62.1662 126.406 62.8618C126.406 63.5573 126.135 64.2244 125.653 64.7162C125.172 65.208 124.518 65.4843 123.836 65.4843H100.71C100.029 65.4835 99.3761 65.2069 98.8944 64.7153C98.4127 64.2236 98.1417 63.5571 98.1409 62.8618Z" fill="#2F2E41"/>
<path d="M88.964 87.963C88.9648 87.2677 89.2357 86.6011 89.7174 86.1095C90.1992 85.6178 90.8523 85.3413 91.5335 85.3405H114.659C115.341 85.3405 115.995 85.6168 116.476 86.1086C116.958 86.6004 117.229 87.2674 117.229 87.963C117.229 88.6585 116.958 89.3255 116.476 89.8174C115.995 90.3092 115.341 90.5855 114.659 90.5855H91.5335C90.8523 90.5847 90.1992 90.3081 89.7174 89.8165C89.2357 89.3248 88.9648 88.6582 88.964 87.963Z" fill="#2F2E41"/>
<path d="M153.262 277.103V275.673C153.263 275.127 153.467 274.602 153.835 274.204C154.202 273.807 154.705 273.568 155.239 273.537V267.953H155.704V273.53H157.797V277.09H167.681V318.033H145.821V285.13C145.821 283.075 146.592 281.098 147.976 279.605C149.36 278.112 151.252 277.217 153.262 277.103Z" fill="#2F2E41"/>
<path d="M161.169 285.279H164.076V282.906H161.169V285.279Z" fill="white"/>
<path d="M156.402 285.279H159.309V282.906H156.402V285.279Z" fill="white"/>
<path d="M151.634 285.279H154.541V282.906H151.634V285.279Z" fill="white"/>
<path d="M161.169 291.331H164.076V288.958H161.169V291.331Z" fill="white"/>
<path d="M156.402 291.331H159.309V288.958H156.402V291.331Z" fill="white"/>
<path d="M151.634 291.331H154.541V288.958H151.634V291.331Z" fill="white"/>
<path d="M161.169 297.384H164.076V295.01H161.169V297.384Z" fill="white"/>
<path d="M156.402 297.384H159.309V295.01H156.402V297.384Z" fill="white"/>
<path d="M151.634 297.384H154.541V295.01H151.634V297.384Z" fill="white"/>
<path d="M161.169 303.436H164.076V301.063H161.169V303.436Z" fill="white"/>
<path d="M156.402 303.436H159.309V301.063H156.402V303.436Z" fill="white"/>
<path d="M151.634 303.436H154.541V301.063H151.634V303.436Z" fill="white"/>
<path d="M161.169 309.489H164.076V307.115H161.169V309.489Z" fill="white"/>
<path d="M156.402 309.489H159.309V307.115H156.402V309.489Z" fill="white"/>
<path d="M151.634 309.489H154.541V307.115H151.634V309.489Z" fill="white"/>
<path d="M161.169 315.541H164.076V313.168H161.169V315.541Z" fill="white"/>
<path d="M156.402 315.541H159.309V313.168H156.402V315.541Z" fill="white"/>
<path d="M151.634 315.541H154.541V313.168H151.634V315.541Z" fill="white"/>
<path d="M174.954 257.153H175.623V252.947C175.623 252.379 175.845 251.834 176.238 251.432C176.632 251.03 177.166 250.804 177.723 250.804H180.623V244.752H181.089V250.804H185.042V257.153H188.937V318.033H167.077V265.193C167.077 263.06 167.907 261.016 169.384 259.508C170.861 258 172.865 257.153 174.954 257.153Z" fill="#2F2E41"/>
<path d="M173.298 262.672H182.716V261.959H173.298V262.672Z" fill="white"/>
<path d="M173.298 267.062H182.716V266.35H173.298V267.062Z" fill="white"/>
<path d="M173.298 271.453H182.716V270.741H173.298V271.453Z" fill="white"/>
<path d="M173.298 275.844H182.716V275.132H173.298V275.844Z" fill="white"/>
<path d="M173.298 280.235H182.716V279.523H173.298V280.235Z" fill="white"/>
<path d="M173.298 284.626H182.716V283.914H173.298V284.626Z" fill="white"/>
<path d="M173.298 289.017H182.716V288.305H173.298V289.017Z" fill="white"/>
<path d="M173.298 293.408H182.716V292.696H173.298V293.408Z" fill="white"/>
<path d="M173.298 297.799H182.716V297.087H173.298V297.799Z" fill="white"/>
<path d="M173.298 302.19H182.716V301.478H173.298V302.19Z" fill="white"/>
<path d="M173.298 306.581H182.716V305.869H173.298V306.581Z" fill="white"/>
<path d="M173.298 310.972H182.716V310.26H173.298V310.972Z" fill="white"/>
<path d="M178.879 254.483H181.786V252.109H178.879V254.483Z" fill="white"/>
<path d="M169.165 208.722L169.498 226.578H148.35L148.349 209.821L169.165 208.722Z" fill="#FFB6B6"/>
<path d="M156.442 171.351C162.812 171.351 167.975 166.081 167.975 159.58C167.975 153.08 162.812 147.81 156.442 147.81C150.073 147.81 144.909 153.08 144.909 159.58C144.909 166.081 150.073 171.351 156.442 171.351Z" fill="#FFB6B6"/>
<path d="M196.664 144.131C196.033 144.138 195.411 144.285 194.842 144.563C194.273 144.842 193.77 145.244 193.37 145.742C192.97 146.239 192.681 146.821 192.525 147.445C192.368 148.068 192.348 148.72 192.465 149.353L175.782 176.887L182.057 179.995L197.819 152.848C198.847 152.577 199.743 151.931 200.336 151.031C200.928 150.131 201.177 149.041 201.035 147.966C200.892 146.892 200.369 145.908 199.563 145.201C198.757 144.494 197.726 144.114 196.664 144.131Z" fill="#FFB6B6"/>
<path d="M168.557 177.871L165.764 183.302L164.273 186.205L163.298 188.098C162.799 188.791 162.444 189.582 162.255 190.42C161.929 191.852 162.097 193.355 162.73 194.676C163.363 195.996 164.423 197.054 165.731 197.67C167.039 198.287 168.515 198.424 169.91 198.059C171.306 197.694 172.536 196.85 173.392 195.668L181.366 187.407C181.592 187.171 181.766 186.887 181.875 186.576C181.985 186.265 182.028 185.934 182.001 185.604C181.974 185.275 181.878 184.955 181.719 184.667C181.561 184.379 181.344 184.129 181.082 183.934L188.037 170.686L180.306 165.721L171.884 177.074C171.622 176.881 171.321 176.747 171.004 176.682C170.686 176.618 170.358 176.623 170.043 176.699C169.728 176.774 169.432 176.918 169.175 177.12C168.919 177.322 168.708 177.578 168.557 177.871Z" fill="#364261"/>
<path d="M143.328 243.2C142.799 242.849 142.352 242.384 142.018 241.837C141.685 241.291 141.472 240.676 141.397 240.037C141.321 239.398 141.383 238.749 141.58 238.137C141.776 237.525 142.102 236.964 142.533 236.495L142.949 204.124L149.878 204.941L148.889 236.481C149.614 237.273 150.029 238.309 150.056 239.393C150.082 240.477 149.718 241.533 149.033 242.362C148.347 243.19 147.388 243.733 146.337 243.887C145.285 244.042 144.215 243.798 143.328 243.2Z" fill="#FFB6B6"/>
<path d="M136.753 347.604H141.475L143.723 329.014H136.753V347.604Z" fill="#FFB6B6"/>
<path d="M135.212 344.303L142.757 343.843V347.142L149.929 352.198C150.283 352.448 150.55 352.806 150.691 353.222C150.831 353.637 150.838 354.087 150.71 354.507C150.581 354.926 150.325 355.293 149.979 355.553C149.632 355.814 149.212 355.954 148.782 355.954H139.8L138.252 352.691L137.648 355.954H134.261L135.212 344.303Z" fill="#364261"/>
<path d="M181.605 345.256L186.012 343.525L178.575 313.942L171.006 317.14L181.605 345.256Z" fill="#FFB6B6"/>
<path d="M179.005 342.739L185.885 339.546L187.045 342.625L195.518 344.715C195.937 344.818 196.312 345.055 196.589 345.391C196.866 345.727 197.031 346.145 197.059 346.584C197.087 347.022 196.977 347.458 196.745 347.828C196.513 348.198 196.171 348.483 195.769 348.641L187.386 351.932L184.793 349.454L185.377 352.721L182.217 353.962L179.005 342.739Z" fill="#364261"/>
<path d="M134.716 331.573H134.767L135.675 301.347C135.088 300.19 134.79 298.902 134.807 297.599C134.825 296.296 135.158 295.018 135.777 293.878L135.907 293.638L135.57 292.043C135.137 289.994 135.336 287.858 136.139 285.929L136.986 257.733C133.959 237.713 148.384 224.656 148.384 224.656H169.993L174.632 240.923C177.699 271.419 184.376 284.525 179.509 313.316L179.642 313.384C180.12 313.553 180.325 314.228 180.1 314.893C179.875 315.558 179.305 315.961 178.828 315.792L172.372 323.729C171.894 323.56 168.089 320.542 168.314 319.877C168.539 319.212 169.109 318.809 169.586 318.978L170.362 319.378L158.174 262.266L151.553 295.697L144.79 331.909C144.976 332.082 145.107 332.308 145.165 332.558C145.223 332.808 145.206 333.07 145.115 333.309C145.024 333.549 144.864 333.754 144.656 333.899C144.448 334.044 144.202 334.121 143.951 334.12H134.716C134.385 334.12 134.068 333.986 133.834 333.747C133.599 333.508 133.468 333.184 133.468 332.847C133.468 332.509 133.599 332.185 133.834 331.946C134.068 331.707 134.385 331.573 134.716 331.573Z" fill="#364261"/>
<path d="M140.684 151.375C140.786 151.527 140.895 151.674 141.012 151.815C141.6 152.506 142.324 153.062 143.137 153.449L143.367 153.386C143.408 153.828 143.543 154.255 143.764 154.638C143.984 155.02 144.283 155.349 144.641 155.601C144.855 155.734 145.09 155.826 145.335 155.874C144.426 159.611 144.38 162.756 145.195 165.277C145.33 165.705 145.496 166.123 145.692 166.526C145.985 167.136 146.344 167.711 146.765 168.238C146.837 168.329 146.911 168.418 146.988 168.507C147.292 168.859 147.623 169.187 147.977 169.486C148.736 170.127 149.58 170.655 150.483 171.056C152.074 171.743 153.764 172.161 155.487 172.293H155.489C156.789 172.415 158.098 172.405 159.397 172.263L159.622 172.233L159.624 172.181L159.632 172.003C159.635 171.959 159.637 171.914 159.641 171.871C159.656 171.58 159.683 171.29 159.722 171.004C159.756 170.722 159.8 170.442 159.853 170.167C160.025 170.587 160.257 171.112 160.529 171.704C160.824 172.345 161.168 173.067 161.533 173.815C161.726 174.209 161.926 174.612 162.128 175.018C162.627 176.019 163.137 177.023 163.602 177.922C163.935 178.564 164.243 179.151 164.508 179.643C164.91 180.397 165.209 180.931 165.328 181.104L165.677 181.613L165.912 180.56L166.167 179.424L166.535 177.775L166.69 177.083C166.709 176.992 166.728 176.903 166.747 176.812C166.88 176.144 166.953 175.465 166.966 174.784C166.974 174.519 166.97 174.255 166.955 173.99C166.907 172.993 166.732 172.007 166.437 171.056C166.272 170.518 166.067 169.993 165.825 169.486C165.742 169.304 165.653 169.122 165.558 168.944C165.43 168.706 165.294 168.47 165.152 168.238C165.139 168.218 165.129 168.199 165.116 168.179C164.793 167.66 164.529 167.105 164.328 166.526C164.187 166.119 164.079 165.702 164.005 165.277C163.683 163.443 163.989 161.552 164.872 159.921C165.216 159.276 165.654 158.687 166.171 158.176C166.394 157.956 166.634 157.753 166.887 157.569C167.274 157.283 167.694 157.047 168.138 156.865C168.822 156.581 169.555 156.435 170.294 156.436H170.563V156.161C170.572 154.591 170.07 153.062 169.136 151.815C169.024 151.663 168.903 151.516 168.777 151.375C167.752 150.163 166.305 149.405 164.742 149.261C164.64 148.44 164.069 147.701 163.075 147.116C162.488 146.783 161.861 146.529 161.21 146.361C159.179 145.846 157.055 145.846 155.024 146.361C154.196 146.569 153.395 146.877 152.639 147.278C152.604 146.963 152.525 146.654 152.405 146.361C152.181 145.807 151.82 145.321 151.356 144.952C151.13 144.773 150.878 144.631 150.609 144.532C150.039 144.33 149.424 144.294 148.835 144.428C145.775 142.009 142.793 142.908 141.154 144.952C140.808 145.378 140.524 145.853 140.311 146.361C139.949 147.16 139.793 148.04 139.859 148.918C139.924 149.795 140.208 150.641 140.684 151.375Z" fill="#2F2E41"/>
<path d="M154.125 200.259L153.799 194.134L153.623 190.861L153.511 188.726C153.591 187.869 153.499 187.005 153.241 186.186C152.803 184.786 151.905 183.582 150.698 182.779C149.492 181.975 148.051 181.621 146.618 181.775C145.185 181.929 143.849 182.583 142.833 183.626C141.817 184.668 141.185 186.036 141.042 187.5L138.338 198.762C138.262 199.083 138.255 199.418 138.317 199.742C138.379 200.067 138.509 200.374 138.697 200.642C138.886 200.911 139.128 201.136 139.409 201.3C139.69 201.465 140.002 201.566 140.325 201.597L140.998 216.611L150.13 216.835L151.666 202.682C151.989 202.711 152.314 202.669 152.62 202.558C152.925 202.448 153.204 202.272 153.437 202.042C153.67 201.812 153.852 201.534 153.97 201.227C154.089 200.919 154.142 200.589 154.125 200.259Z" fill="#364261"/>
<path d="M172.519 191.518C172.503 191.35 172.48 191.174 172.448 191.006C171.894 187.068 169.85 183.51 166.754 181.093C165.704 180.265 164.553 179.581 163.33 179.058V175.615H152.027V178.92C149.629 179.887 147.503 181.447 145.841 183.459V183.467C145.716 183.619 145.598 183.779 145.481 183.939C145.269 184.211 145.073 184.499 144.885 184.786C143.188 187.405 142.313 190.489 142.379 193.628V193.636C142.404 194.845 142.569 196.048 142.872 197.217C143.394 199.263 143.805 201.337 144.102 203.429C144.306 204.756 144.462 206.059 144.58 207.33C144.65 207.969 144.705 208.601 144.752 209.216V209.224C144.987 212.27 145.066 215.004 145.136 217.122C145.167 218.273 145.199 219.233 145.253 219.968C145.255 220.017 145.26 220.065 145.269 220.112C145.329 220.606 145.537 221.07 145.864 221.439C145.905 221.491 145.949 221.539 145.998 221.583C146.345 221.902 146.765 222.127 147.219 222.239C147.377 222.271 147.537 222.287 147.697 222.287H147.744C153.049 219.764 159.009 219.053 164.741 220.26L168.522 221.056C168.682 221.09 168.847 221.087 169.005 221.047C169.163 221.008 169.311 220.933 169.438 220.828C169.564 220.723 169.666 220.591 169.736 220.44C169.806 220.29 169.843 220.126 169.842 219.959C169.835 217.451 169.347 212.265 169.668 211.998C170.005 211.706 170.262 211.328 170.412 210.903V210.895C170.428 210.831 170.451 210.767 170.467 210.695C171.125 208.049 172.292 205.211 172.707 200.647C172.762 199.991 172.809 199.312 172.832 198.584V198.576C172.901 196.219 172.796 193.859 172.519 191.518Z" fill="#364261"/>
<path d="M273.421 316.683C276.725 320.055 276.468 321.46 277.727 320.685C279.221 319.763 280.699 318.814 282.161 317.837C282.617 317.534 283.072 317.227 283.527 316.916C283.938 316.635 284.345 316.354 284.753 316.069C286.192 315.065 287.612 314.035 289.015 312.978C290.465 311.888 291.894 310.77 293.302 309.625C295.138 308.134 296.936 306.6 298.698 305.024C301.984 302.095 305.134 299.018 308.151 295.793C308.246 295.692 308.341 295.591 308.437 295.486C308.738 295.164 309.035 294.842 309.332 294.516L307.839 289.008L306.003 208.741L305.893 184.554L305.886 182.321L304.256 147.344L304.245 145.111L303.298 97.9548L303.29 96.1191L303.276 93.5191L308.393 88.4426L300.941 63.8997L300.93 61.2997L300.816 37.0339L300.809 35.0521C296.922 31.4404 291.419 30.7324 284.69 31.3693C284.356 31.403 284.015 31.4368 283.674 31.4742L283.582 33.0103L283.413 35.7488V35.7527L282.092 57.4671V57.4746L281.857 61.2997L281.699 63.8997L281.284 70.7032L287.238 93.5191L287.08 96.1191L285.931 114.971L285.773 117.571L285.447 122.936L284.096 145.111L283.96 147.344L283.681 151.949L283.332 157.643L283.292 158.306L283.134 160.906L279.062 168.377L278.937 170.46L278.361 179.949L278.284 181.216L278.251 181.737L278.214 182.321L278.156 183.295L278.078 184.554L277.803 189.072L277.689 190.968L277.579 192.755L277.502 194.047L277.374 196.13L277.274 197.741L280.634 201.99L280.524 203.777L280.337 206.883L280.223 208.741L280.209 208.966L279.963 213.012L279.852 214.799L279.772 216.181L279.555 219.722L279.427 221.801L279.291 224.03L279.184 225.817L278.773 232.553L278.648 234.636L278.623 235.052L278.513 236.839L277.991 245.389L277.951 246.074L277.867 247.472L277.845 247.861L277.279 257.092L277.21 258.224L277.169 258.879L277.085 260.307L276.607 268.114L276.497 269.901L276.428 271.059L276.303 273.142L275.939 279.137L275.829 280.924L275.649 283.898L275.521 285.978L275.268 290.155L275.158 291.942L274.868 296.73L274.739 298.809L274.658 301.177L274.596 302.964L273.421 316.683Z" fill="white"/>
<path d="M274.339 62.8618C274.34 62.1665 274.611 61.4999 275.092 61.0083C275.574 60.5166 276.227 60.2401 276.908 60.2393H300.034C300.716 60.2393 301.369 60.5156 301.851 61.0074C302.333 61.4992 302.604 62.1662 302.604 62.8618C302.604 63.5573 302.333 64.2244 301.851 64.7162C301.369 65.208 300.716 65.4843 300.034 65.4843H276.908C276.227 65.4835 275.574 65.2069 275.092 64.7153C274.611 64.2236 274.34 63.5571 274.339 62.8618Z" fill="#2F2E41"/>
<path d="M76.1108 32.703C76.1116 32.0077 76.3826 31.3411 76.8643 30.8495C77.346 30.3578 77.9991 30.0813 78.6804 30.0804H321.32C322.001 30.0814 322.653 30.3581 323.134 30.8498C323.615 31.3415 323.886 32.008 323.886 32.703C323.886 33.3979 323.615 34.0644 323.134 34.5561C322.653 35.0478 322.001 35.3245 321.32 35.3255H78.6804C77.9991 35.3247 77.346 35.0481 76.8643 34.5565C76.3826 34.0648 76.1116 33.3982 76.1108 32.703Z" fill="#2F2E41"/>
<path d="M282.415 89.087C282.415 88.3917 282.686 87.7251 283.168 87.2335C283.65 86.7418 284.303 86.4653 284.984 86.4645H308.11C308.448 86.464 308.782 86.5315 309.095 86.6631C309.407 86.7947 309.69 86.9878 309.929 87.2314C310.168 87.4749 310.358 87.7642 310.487 88.0826C310.617 88.401 310.683 88.7423 310.683 89.087C310.683 89.4317 310.617 89.773 310.487 90.0914C310.358 90.4098 310.168 90.699 309.929 90.9426C309.69 91.1862 309.407 91.3793 309.095 91.5109C308.782 91.6425 308.448 91.71 308.11 91.7095H284.984C284.303 91.7087 283.65 91.4321 283.168 90.9405C282.686 90.4488 282.415 89.7823 282.415 89.087Z" fill="#2F2E41"/>
<path d="M298.75 99.7587L297.648 175.408L298.383 175.419L299.484 99.7699L298.75 99.7587Z" fill="white"/>
<path d="M291.408 186.676L290.307 262.325L291.041 262.337L292.142 186.687L291.408 186.676Z" fill="white"/>
<path d="M299.484 250.736L298.383 291.918L299.117 291.938L300.218 250.756L299.484 250.736Z" fill="white"/>
<path d="M146.253 157.062C149.616 155.706 152.984 153.252 153.539 149.328C153.706 148.453 153.601 147.547 153.239 146.736C152.901 146.171 152.505 145.644 152.058 145.163C151.886 144.958 151.759 144.716 151.689 144.455C151.618 144.194 151.604 143.92 151.649 143.653C151.691 143.351 151.794 143.061 151.952 142.802C152.11 142.543 152.32 142.321 152.567 142.149C152.612 142.122 152.466 142.039 152.47 142.116C152.476 142.257 152.534 142.409 152.547 142.555C152.588 142.996 152.564 143.441 152.475 143.875C152.292 144.784 151.859 145.622 151.226 146.289C150.214 147.356 151.81 148.989 152.824 147.92C153.551 147.164 154.102 146.251 154.437 145.249C154.772 144.247 154.883 143.182 154.762 142.13C154.624 141.047 154.04 140.006 152.888 139.856C151.722 139.705 150.731 140.533 150.118 141.464C149.56 142.321 149.301 143.345 149.382 144.37C149.485 145.273 149.862 146.121 150.46 146.795C150.626 147.001 150.944 147.353 151.025 147.466C151.172 147.646 151.28 147.855 151.342 148.08C151.495 149.022 151.092 150.083 150.647 150.884C149.574 152.819 147.632 154.039 145.652 154.837C145.368 154.926 145.128 155.123 144.981 155.387C144.835 155.651 144.792 155.962 144.863 156.256C144.944 156.55 145.136 156.8 145.396 156.95C145.656 157.101 145.964 157.141 146.253 157.062Z" fill="#364261"/>
<path d="M260.677 187.601H267.973V181.643H260.677V187.601Z" fill="white"/>
<path d="M260.677 202.366H267.973V196.409H260.677V202.366Z" fill="white"/>
<path d="M260.677 217.131H267.973V211.174H260.677V217.131Z" fill="white"/>
<path d="M260.677 231.896H267.973V225.939H260.677V231.896Z" fill="white"/>
<path d="M260.677 246.661H267.973V240.704H260.677V246.661Z" fill="white"/>
<path d="M260.677 261.427H267.973V255.469H260.677V261.427Z" fill="white"/>
<path d="M260.677 276.192H267.973V270.235H260.677V276.192Z" fill="white"/>
<path d="M260.677 290.957H267.973V285H260.677V290.957Z" fill="white"/>
<path d="M260.677 305.722H267.973V299.765H260.677V305.722Z" fill="white"/>
</g>
<defs>
<clipPath id="clip0_8_16">
<rect width="400" height="371.475" fill="white"/>
</clipPath>
</defs>
</svg>
