<svg width="400" height="390" viewBox="0 0 400 390" fill="none" xmlns="http://www.w3.org/2000/svg">
<g clip-path="url(#clip0_13_264)">
<path d="M356.018 375.726C356.394 375.743 356.767 375.644 357.086 375.443C357.405 375.241 357.654 374.946 357.799 374.598C357.945 374.25 357.98 373.866 357.9 373.497C357.819 373.129 357.628 372.794 357.351 372.538L357.225 372.036C357.241 371.996 357.258 371.956 357.275 371.916C357.654 371.02 358.291 370.255 359.103 369.719C359.916 369.183 360.869 368.899 361.842 368.902C362.816 368.906 363.767 369.197 364.575 369.739C365.384 370.282 366.014 371.051 366.387 371.95C367.878 375.539 369.775 379.135 370.242 382.93C370.448 384.608 370.361 386.309 369.986 387.956C373.486 380.321 375.304 372.021 375.316 363.622C375.316 361.514 375.199 359.408 374.965 357.313C374.771 355.595 374.502 353.89 374.158 352.198C372.282 343.012 368.254 334.403 362.405 327.077C359.574 325.533 357.284 323.157 355.844 320.271C355.323 319.234 354.954 318.126 354.75 316.983C355.07 317.025 355.954 312.161 355.714 311.863C356.159 311.187 356.955 310.852 357.441 310.193C359.859 306.915 363.189 307.487 364.928 311.941C368.643 313.816 368.678 316.925 366.399 319.915C364.949 321.817 364.75 324.391 363.478 326.428C363.609 326.596 363.745 326.758 363.876 326.925C366.268 330.002 368.354 333.306 370.102 336.789C369.677 332.887 370.184 328.939 371.583 325.271C373 321.853 375.656 318.973 377.995 316.018C378.613 315.224 379.454 314.632 380.409 314.315C381.364 313.999 382.392 313.972 383.362 314.24C384.333 314.507 385.202 315.056 385.86 315.818C386.518 316.579 386.936 317.519 387.061 318.517C387.065 318.561 387.07 318.605 387.075 318.648C386.727 318.844 386.387 319.052 386.054 319.272C385.636 319.551 385.312 319.951 385.125 320.417C384.938 320.884 384.896 321.396 385.004 321.887C385.113 322.377 385.368 322.824 385.734 323.168C386.101 323.511 386.563 323.736 387.06 323.813L387.111 323.821C386.987 325.073 386.769 326.314 386.457 327.533C389.457 339.137 382.979 343.364 373.729 343.554C373.525 343.658 373.326 343.763 373.122 343.863C374.878 348.84 375.98 354.025 376.399 359.287C376.637 362.391 376.623 365.509 376.357 368.611L376.373 368.501C377.043 365.052 378.883 361.939 381.582 359.69C385.591 356.396 391.255 355.184 395.58 352.537C396.04 352.242 396.574 352.084 397.12 352.083C397.667 352.081 398.202 352.236 398.663 352.529C399.124 352.822 399.492 353.241 399.723 353.736C399.954 354.231 400.038 354.781 399.966 355.323L399.949 355.438C399.304 355.701 398.676 356.003 398.069 356.344C397.722 356.54 397.382 356.748 397.049 356.968C396.631 357.247 396.307 357.647 396.12 358.113C395.932 358.58 395.89 359.092 395.999 359.583C396.108 360.073 396.362 360.52 396.729 360.864C397.096 361.208 397.558 361.432 398.055 361.509L398.106 361.517C398.143 361.522 398.174 361.527 398.211 361.533C397.109 364.163 395.563 366.584 393.64 368.69C391.764 378.82 383.705 379.781 375.085 376.831H375.08C374.134 380.941 372.764 384.941 370.991 388.768H356.384C356.331 388.606 356.284 388.438 356.237 388.276C357.589 388.361 358.947 388.28 360.279 388.035C359.195 386.705 358.111 385.365 357.028 384.035C357.004 384.01 356.981 383.984 356.96 383.956C356.41 383.276 355.855 382.6 355.305 381.92L355.305 381.919C355.276 379.833 355.515 377.751 356.018 375.726Z" fill="#364261"/>
<path d="M195.131 62.6914C195.665 63.4994 196.367 64.1819 197.19 64.6917C198.013 65.2015 198.937 65.5265 199.898 65.6441C200.859 65.7618 201.834 65.6692 202.756 65.373C203.677 65.0767 204.524 64.5837 205.236 63.9282L235.605 77.6296L241.46 70.1613L205.272 54.1517C204.079 53.0346 202.518 52.3937 200.884 52.3506C199.251 52.3074 197.658 52.865 196.408 53.9177C195.159 54.9703 194.338 56.4449 194.103 58.0619C193.867 59.679 194.233 61.3262 195.131 62.6914Z" fill="#FFB6B6"/>
<path d="M325.463 71.235L328.475 88.3033C328.615 89.0995 328.588 89.9164 328.394 90.7014C328.2 91.4864 327.844 92.2222 327.349 92.8616C326.854 93.501 326.231 94.0297 325.52 94.414C324.808 94.7983 324.024 95.0295 323.218 95.0929L272.038 99.1176L211.878 72.1931L219.063 58.553L271.287 75.091L325.463 71.235Z" fill="#364261"/>
<path d="M205.68 59.0027H21.6788C9.70592 59.0027 0 68.7086 0 80.6815V262.339C0 274.312 9.70592 284.018 21.6788 284.018H205.68C217.652 284.018 227.358 274.312 227.358 262.339V80.6815C227.358 68.7086 217.652 59.0027 205.68 59.0027Z" fill="#22293C"/>
<path d="M21.6789 63.4609C19.4175 63.4609 17.1782 63.9063 15.0889 64.7717C12.9996 65.6371 11.1012 66.9056 9.50214 68.5046C7.90307 70.1037 6.63461 72.0021 5.76919 74.0914C4.90378 76.1807 4.45837 78.42 4.45837 80.6814V262.339C4.45837 266.906 6.27267 271.286 9.50214 274.516C12.7316 277.745 17.1117 279.56 21.6789 279.56H139.113C150.116 279.56 161.011 277.392 171.177 273.182C181.342 268.971 190.579 262.799 198.359 255.019C206.139 247.239 212.311 238.002 216.522 227.836C220.733 217.671 222.9 206.775 222.9 195.772V80.6814C222.9 78.42 222.454 76.1807 221.589 74.0914C220.724 72.0021 219.455 70.1037 217.856 68.5046C216.257 66.9056 214.359 65.6371 212.269 64.7717C210.18 63.9063 207.941 63.4609 205.679 63.4609H21.6789Z" fill="white"/>
<path d="M165.116 118.591H61.8401C60.8925 118.591 59.9836 118.214 59.3135 117.544C58.6434 116.874 58.267 115.965 58.267 115.018C58.267 114.07 58.6434 113.161 59.3135 112.491C59.9836 111.821 60.8925 111.445 61.8401 111.445H165.116C166.064 111.445 166.972 111.821 167.642 112.491C168.313 113.161 168.689 114.07 168.689 115.018C168.689 115.965 168.313 116.874 167.642 117.544C166.972 118.214 166.064 118.591 165.116 118.591Z" fill="#364261"/>
<path d="M165.116 194.787H61.8401C60.8925 194.787 59.9836 194.411 59.3135 193.741C58.6434 193.071 58.267 192.162 58.267 191.214C58.267 190.267 58.6434 189.358 59.3135 188.688C59.9836 188.018 60.8925 187.641 61.8401 187.641H165.116C166.064 187.641 166.972 188.018 167.642 188.688C168.313 189.358 168.689 190.267 168.689 191.214C168.689 192.162 168.313 193.071 167.642 193.741C166.972 194.411 166.064 194.787 165.116 194.787Z" fill="#364261"/>
<path d="M207.054 156.714H19.902C18.9543 156.714 18.0455 156.338 17.3754 155.668C16.7053 154.997 16.3289 154.089 16.3289 153.141C16.3289 152.193 16.7053 151.284 17.3754 150.614C18.0455 149.944 18.9543 149.568 19.902 149.568H207.054C208.002 149.568 208.91 149.944 209.581 150.614C210.251 151.284 210.627 152.193 210.627 153.141C210.627 154.089 210.251 154.997 209.581 155.668C208.91 156.338 208.002 156.714 207.054 156.714Z" fill="#364261"/>
<path d="M318.997 146.465L300.353 186.184L372.072 178.921L357.101 140.791L318.997 146.465Z" fill="#FFB6B6"/>
<path d="M335.671 374.757L328.87 374.699L325.861 347.86L335.896 347.945L335.671 374.757Z" fill="#FFB6B6"/>
<path d="M313.889 385.57C313.883 386.376 314.197 387.151 314.762 387.726C315.327 388.301 316.098 388.628 316.904 388.636L330.423 388.749L332.79 383.952L333.659 388.774L338.761 388.82L337.473 371.622L335.698 371.504L328.459 371.005L326.123 370.848L326.082 375.714L315.222 383.081C314.815 383.357 314.481 383.727 314.249 384.161C314.017 384.595 313.894 385.078 313.889 385.57Z" fill="#2F2E41"/>
<path d="M260.418 374.788L253.935 372.735L258.944 346.195L268.512 349.225L260.418 374.788Z" fill="#FFB6B6"/>
<path d="M236.422 378.724C236.179 379.492 236.252 380.326 236.623 381.042C236.994 381.757 237.634 382.296 238.402 382.541L251.292 386.621L254.964 382.73L254.378 387.595L259.241 389.138L263.062 372.32L261.401 371.686L254.627 369.082L252.441 368.246L250.972 372.886L238.427 376.736C237.957 376.88 237.529 377.137 237.18 377.483C236.83 377.829 236.57 378.255 236.422 378.724Z" fill="#2F2E41"/>
<path d="M368.806 167.751L303.595 179.7C303.595 179.7 293.136 187.524 295.934 190.326C298.732 193.128 299.166 192.694 297.328 194.532C295.489 196.37 291.515 198.827 291.476 200.436C291.436 202.044 262.255 274.188 262.255 274.188C262.255 274.188 265.497 272.567 263.065 274.998C260.634 277.43 260.634 279.44 260.634 279.44L249.285 356.058L267.715 357.144L285.762 287.291L326.016 222.035C326.016 222.035 330.01 280.227 330.178 284.098C330.345 287.968 332.777 283.104 330.345 287.968C327.913 292.832 326.292 289.589 327.913 292.832C329.535 296.074 322.073 362.085 322.073 362.085H338.896L374.975 225.263C374.975 225.263 387.812 186.147 368.806 167.751Z" fill="#2F2E41"/>
<path d="M349.596 58.3102L323.474 55.5961L316.707 64.3824L308.822 68.5815C305.486 70.3585 302.732 73.0589 300.89 76.3598C299.048 79.6606 298.195 83.4223 298.435 87.1948L307.648 140.791C307.648 140.791 299.866 158.315 305.217 162.677C310.567 167.039 301.08 177.841 312.512 172.404C323.944 166.968 373.307 173.215 373.307 173.215L362.769 143.223L370.641 113.751L371.508 89.0398C371.67 84.4221 370.299 79.8806 367.61 76.1231C364.921 72.3656 361.065 69.6033 356.642 68.2667L355.541 67.9341L349.596 58.3102Z" fill="#364261"/>
<path d="M385.558 38.2848C385.729 45.6475 382.977 52.7767 379.024 59.0386C377.85 55.383 375.738 52.0559 373.536 48.8843C374.646 55.7454 373.464 62.7811 370.172 68.9026C370.056 68.9855 369.936 69.0626 369.812 69.1335C366.59 71.0717 362.505 71.8567 359.02 70.4568C366.221 62.694 367.138 49.832 361.1 41.1247C359.391 38.654 357.18 36.4688 356.121 33.6571C354.45 29.1708 356.056 24.2313 357.07 19.5539C358.018 15.2006 358.184 10.0202 355.263 6.8298C355.575 6.38395 356 6.02905 356.495 5.80147C356.989 5.57389 357.535 5.48181 358.076 5.53467C359.877 5.78903 361.188 7.35419 362.023 8.96621C362.857 10.5782 363.408 12.3648 364.571 13.7571C366.726 16.3632 370.395 16.9794 373.487 18.3528C380.975 21.6881 385.378 30.0921 385.558 38.2848Z" fill="#2F2E41"/>
<path d="M192.64 388.811C192.64 388.938 192.664 389.064 192.713 389.181C192.761 389.298 192.832 389.405 192.922 389.494C193.011 389.584 193.118 389.655 193.235 389.703C193.352 389.752 193.478 389.776 193.605 389.776H398.922C399.178 389.776 399.423 389.674 399.604 389.493C399.785 389.313 399.886 389.067 399.886 388.811C399.886 388.556 399.785 388.31 399.604 388.129C399.423 387.948 399.178 387.847 398.922 387.847H193.605C193.478 387.846 193.352 387.871 193.235 387.919C193.118 387.968 193.011 388.039 192.922 388.128C192.832 388.218 192.761 388.325 192.713 388.442C192.664 388.559 192.64 388.685 192.64 388.811Z" fill="#364261"/>
<path d="M387.174 208.931C391.203 208.931 394.469 205.664 394.469 201.635C394.469 197.606 391.203 194.34 387.174 194.34C383.145 194.34 379.879 197.606 379.879 201.635C379.879 205.664 383.145 208.931 387.174 208.931Z" fill="#364261"/>
<path d="M322.527 34.0751C322.955 32.5775 320.005 41.7323 321.429 41.8976C327.911 42.6413 336.809 46.5125 341.324 48.3185C341.527 48.2949 341.73 48.2713 341.928 48.2418C342.412 48.1887 342.884 48.1119 343.351 48.0234C353.863 46.0344 357.906 29.8861 357.906 29.7386C357.906 29.0127 356.163 9.07396 353.419 8.77891C352.698 8.70068 351.973 8.66128 351.248 8.66086H344.437C343.028 8.35716 341.599 8.1501 340.162 8.04114H340.15C326.438 6.99647 315.627 15.3538 316.637 25.5231C316.643 25.5348 316.655 25.5467 316.661 25.5585C316.954 25.9952 317.211 26.4084 317.439 26.8038C317.66 27.1756 317.845 27.5297 318.007 27.8662C319.256 30.4631 316.044 33.7308 318.174 34.3408C321.007 35.152 310.723 61.8149 321.937 61.8149C316.482 63.3657 321.346 38.2066 322.527 34.0751Z" fill="#2F2E41"/>
<path d="M334.767 49.7198C343.673 49.7198 350.893 42.5001 350.893 33.5941C350.893 24.6881 343.673 17.4684 334.767 17.4684C325.861 17.4684 318.641 24.6881 318.641 33.5941C318.641 42.5001 325.861 49.7198 334.767 49.7198Z" fill="#FFB6B6"/>
<path d="M316.637 26.4024C316.906 26.5441 317.169 26.6739 317.439 26.8038C317.72 26.9395 318.001 27.0753 318.282 27.1992C323.681 29.6486 328.076 29.92 330.743 26.4024C330.815 24.5515 331.231 22.7301 331.969 21.0315C331.839 22.9297 332.339 24.8179 333.392 26.4024H338.762C344.294 30.0735 347.134 30.4571 343.295 42.5092C342.225 45.8674 337.969 65.4092 339.643 68.3071C340.127 68.254 345.28 46.8497 345.747 46.7612C356.259 44.7722 362.938 27.453 362.083 26.4733C362.087 23.6871 361.447 20.9378 360.212 18.4405C358.649 15.2766 356.213 12.6264 353.191 10.8033C351.39 9.93001 349.513 9.22467 347.582 8.69621C347.535 8.6844 347.493 8.67258 347.445 8.6608C346.853 8.50143 346.249 8.35389 345.645 8.22994C344.397 7.96648 343.135 7.77533 341.866 7.65745C341.776 7.65154 341.686 7.64562 341.603 7.64562C341.096 7.64681 340.598 7.78333 340.162 8.04109C340.156 8.04109 340.156 8.04696 340.15 8.04696C339.838 8.22928 339.565 8.47207 339.348 8.7611C338.966 9.24742 338.76 9.84846 338.762 10.4668H332.783C332.561 10.4668 332.34 10.4727 332.119 10.4845C328.128 10.6209 324.331 12.2417 321.472 15.0296C318.613 17.8176 316.898 21.5721 316.661 25.5584C316.643 25.8417 316.637 26.1191 316.637 26.4024Z" fill="#2F2E41"/>
<path d="M351.895 21.2475C357.763 21.2475 362.519 16.491 362.519 10.6237C362.519 4.7564 357.763 0 351.895 0C346.028 0 341.272 4.7564 341.272 10.6237C341.272 16.491 346.028 21.2475 351.895 21.2475Z" fill="#2F2E41"/>
<path d="M387.256 204.643C387.774 203.826 388.109 202.905 388.237 201.946C388.365 200.986 388.282 200.01 387.996 199.085C387.709 198.161 387.225 197.309 386.578 196.59C385.93 195.87 385.133 195.3 384.243 194.919L384.296 161.602L375.084 159.322L375.311 198.894C374.781 200.439 374.836 202.126 375.466 203.633C376.096 205.141 377.257 206.365 378.729 207.074C380.202 207.783 381.883 207.927 383.455 207.479C385.026 207.031 386.379 206.022 387.256 204.643Z" fill="#FFB6B6"/>
<path d="M341.639 82.2574L355.974 72.5153C356.642 72.0608 357.399 71.7512 358.194 71.6063C358.99 71.4614 359.807 71.4845 360.593 71.674C361.379 71.8635 362.117 72.2153 362.759 72.7068C363.401 73.1983 363.933 73.8186 364.321 74.5279L388.966 119.564L389.061 185.474L373.674 184.51L367.357 130.095L341.639 82.2574Z" fill="#364261"/>
<path d="M231.544 231.733H78.3409C75.0087 231.733 71.8129 233.056 69.4566 235.413C67.1003 237.769 65.7766 240.965 65.7766 244.297C65.7766 247.629 67.1003 250.825 69.4566 253.181C71.8129 255.538 75.0087 256.861 78.3409 256.861H231.544C234.877 256.861 238.073 255.538 240.429 253.181C242.785 250.825 244.109 247.629 244.109 244.297C244.109 240.965 242.785 237.769 240.429 235.413C238.073 233.056 234.877 231.733 231.544 231.733Z" fill="white"/>
<path d="M231.545 257.672H78.341C74.7937 257.672 71.3918 256.263 68.8835 253.754C66.3752 251.246 64.9661 247.844 64.9661 244.297C64.9661 240.75 66.3752 237.348 68.8835 234.839C71.3918 232.331 74.7937 230.922 78.341 230.922H231.545C235.092 230.922 238.494 232.331 241.002 234.839C243.51 237.348 244.919 240.75 244.919 244.297C244.919 247.844 243.51 251.246 241.002 253.754C238.494 256.263 235.092 257.672 231.545 257.672ZM78.341 232.543C75.2237 232.543 72.2341 233.782 70.0298 235.986C67.8256 238.19 66.5873 241.18 66.5873 244.297C66.5873 247.414 67.8256 250.404 70.0298 252.608C72.2341 254.812 75.2237 256.051 78.341 256.051H231.545C234.662 256.051 237.651 254.812 239.856 252.608C242.06 250.404 243.298 247.414 243.298 244.297C243.298 241.18 242.06 238.19 239.856 235.986C237.651 233.782 234.662 232.543 231.545 232.543H78.341Z" fill="#364261"/>
</g>
<defs>
<clipPath id="clip0_13_264">
<rect width="400" height="389.776" fill="white"/>
</clipPath>
</defs>
</svg>
