<svg width="400" height="224" viewBox="0 0 400 224" fill="none" xmlns="http://www.w3.org/2000/svg">
<g clip-path="url(#clip0_14_656)">
<path d="M84.1805 223.024H23.0703C23.0703 223.024 21.8315 204.856 29.1604 204.65C36.4893 204.444 35.6635 212.702 44.8509 201.347C54.0383 189.992 65.1863 190.611 66.6315 197.321C68.0767 204.031 63.8446 209.398 71.5864 207.747C79.3282 206.095 90.4771 210.431 84.1805 223.024Z" fill="#E6E6E6"/>
<path d="M52.5942 223.029L52.3877 223.02C52.8688 211.059 55.3737 203.375 57.3908 199.033C59.5805 194.319 61.6907 192.411 61.712 192.393L61.8494 192.547C61.8285 192.566 59.7431 194.455 57.5708 199.136C55.5649 203.458 53.0736 211.112 52.5942 223.029Z" fill="white"/>
<path d="M74.7109 223.053L74.5127 222.995C76.0496 217.926 78.8199 213.317 82.5757 209.581L82.7143 209.734C78.9864 213.444 76.2366 218.02 74.7109 223.053Z" fill="white"/>
<path d="M32.6957 223.039L32.4909 223.01C33.1573 218.526 32.4523 213.945 30.4686 209.868C29.6554 208.158 28.5789 206.586 27.2783 205.21L27.4213 205.061C28.7395 206.454 29.8308 208.045 30.6555 209.776C32.6571 213.89 33.3682 218.513 32.6957 223.039Z" fill="white"/>
<path d="M92.4737 223.3H16.4793L16.4619 223.043C16.4184 222.403 15.4488 207.297 20.3432 201.907C20.8288 201.338 21.4283 200.876 22.1029 200.552C22.7776 200.229 23.5126 200.05 24.2606 200.027C27.4509 199.936 29.4559 201.132 31.0732 202.09C34.1213 203.898 36.1345 205.093 43.456 196.045C51.3869 186.242 59.9445 184.133 64.8637 185.305C68.0423 186.063 70.2328 188.205 70.8739 191.182C71.4824 194 71.2877 196.649 71.1321 198.777C70.9656 201.054 70.8344 202.852 71.7697 203.668C72.5521 204.348 74.1085 204.41 76.6729 203.862C81.8885 202.75 89.1679 203.702 92.821 208.422C94.7865 210.962 96.3351 215.578 92.5502 223.148L92.4737 223.3ZM16.9978 222.748H92.1317C94.9521 217.026 95.0403 212.192 92.3842 208.76C89.0327 204.43 82.0016 203.29 76.7881 204.403C74.0016 204.997 72.3417 204.899 71.4068 204.084C70.2633 203.088 70.4036 201.168 70.581 198.738C70.734 196.646 70.9239 194.041 70.3337 191.3C69.7391 188.539 67.6985 186.551 64.7351 185.844C59.9728 184.708 51.6525 186.791 43.885 196.393C36.2641 205.813 33.9679 204.451 30.7911 202.565C29.1538 201.594 27.2953 200.493 24.2758 200.579C23.6024 200.6 22.941 200.763 22.334 201.055C21.7271 201.348 21.1881 201.764 20.7518 202.278C16.3541 207.122 16.8905 220.706 16.9983 222.748H16.9978Z" fill="#2F2E41"/>
<path d="M340.783 223.607H265.931L265.917 223.188L262.343 120.969H344.371L340.783 223.607ZM266.771 222.738H339.943L343.471 121.839H263.242L266.771 222.738Z" fill="#3F3D56"/>
<path d="M283.787 139.909H278.093V210.362H283.787V139.909Z" fill="#3F3D56"/>
<path d="M306.204 139.909H300.51V210.362H306.204V139.909Z" fill="#3F3D56"/>
<path d="M328.621 139.909H322.927V210.362H328.621V139.909Z" fill="#3F3D56"/>
<path d="M391.935 150.986L391.568 150.754L298.592 91.9978L306.657 79.236L307.025 79.4681L400 138.224L391.935 150.986ZM299.792 91.7274L391.664 149.786L398.8 138.495L306.928 80.435L299.792 91.7274Z" fill="#3F3D56"/>
<path d="M369.487 87.2623C366.785 85.5519 363.648 84.6528 360.45 84.6716C357.252 84.6903 354.126 85.6262 351.444 87.3682C348.762 89.1102 346.635 91.5851 345.318 94.4992C344 97.4134 343.546 100.644 344.009 103.809L348.442 106.611C347.328 104.024 347.071 101.148 347.71 98.4046C348.348 95.6613 349.848 93.1943 351.99 91.3651C354.132 89.5358 356.803 88.4403 359.612 88.2389C362.422 88.0375 365.222 88.7409 367.603 90.2461C369.984 91.7512 371.82 93.979 372.843 96.6033C373.866 99.2276 374.022 102.11 373.289 104.83C372.555 107.549 370.97 109.962 368.765 111.716C366.561 113.469 363.853 114.471 361.038 114.574L365.471 117.375C368.529 116.437 371.253 114.641 373.32 112.2C375.388 109.76 376.711 106.778 377.135 103.607C377.558 100.437 377.063 97.2122 375.708 94.315C374.353 91.4178 372.196 88.9701 369.491 87.2623H369.487Z" fill="#3F3D56"/>
<path d="M395.087 223.007H0V223.877H395.087V223.007Z" fill="#3F3D56"/>
<path d="M172.568 217.076H166.238L163.225 192.66H172.569L172.568 217.076Z" fill="#FEB8B8"/>
<path d="M154.03 222.953H173.924V215.267H161.609C159.599 215.267 157.671 216.065 156.25 217.487C154.828 218.908 154.03 220.836 154.03 222.847V222.953Z" fill="#2F2E41"/>
<path d="M170.343 179.243L174.709 183.826L194.464 169.167L188.02 162.403L170.343 179.243Z" fill="#FEB8B8"/>
<path d="M179.208 185.926L170.711 177.01L165.146 182.314L178.873 196.717L178.95 196.644C179.67 195.957 180.249 195.135 180.652 194.224C181.055 193.314 181.274 192.333 181.298 191.338C181.322 190.343 181.15 189.353 180.791 188.424C180.432 187.495 179.894 186.646 179.208 185.926Z" fill="#2F2E41"/>
<path d="M126.283 112.353C125.883 111.708 125.628 110.984 125.538 110.23C125.448 109.477 125.523 108.713 125.76 107.992C125.997 107.271 126.389 106.61 126.909 106.057C127.428 105.504 128.063 105.071 128.767 104.79L153.62 41.4513L163.307 47.2516L135.699 108.014C136.094 109.23 136.029 110.548 135.516 111.719C135.004 112.889 134.08 113.832 132.919 114.366C131.758 114.901 130.441 114.992 129.218 114.62C127.995 114.249 126.951 113.442 126.283 112.353Z" fill="#FEB8B8"/>
<path d="M220.614 116.892C219.857 116.838 219.121 116.619 218.457 116.249C217.794 115.88 217.22 115.369 216.776 114.754C216.331 114.139 216.027 113.433 215.885 112.687C215.742 111.942 215.765 111.174 215.952 110.438L179.288 53.1226L189.672 48.6893L222.633 106.724C223.851 107.117 224.881 107.944 225.529 109.047C226.177 110.15 226.397 111.452 226.148 112.707C225.899 113.962 225.198 115.081 224.177 115.853C223.157 116.625 221.889 116.996 220.614 116.894V116.892Z" fill="#FEB8B8"/>
<path d="M153.864 106.01L160.354 202.462L175.863 201.094L179.055 129.934L187.722 160.495L206.424 161.864L199.021 101.449L153.864 106.01Z" fill="#2F2E41"/>
<path d="M190.459 155.934L187.721 160.496L168.565 173.724L182.249 181.022C182.249 181.022 208.705 166.426 206.425 161.864L190.459 155.934Z" fill="#2F2E41"/>
<path d="M140.284 66.9868L145.682 51.7744C146.883 48.3896 148.744 45.2767 151.156 42.6156C153.568 39.9546 156.484 37.7984 159.735 36.2717C167.042 33.5798 174.989 33.1447 182.547 35.023L184.511 35.5107C189.75 36.7805 194.658 39.1511 198.91 42.4649C202.237 45.0875 205.23 48.4082 205.496 51.98C205.497 51.9876 205.5 51.9951 205.503 52.0022C206.424 56.0409 206.88 77.023 206.88 77.023H198.752L200.038 105.304L199.934 105.099C199.934 105.099 153.056 113.97 153.056 109.409V80.215L152.095 69.6446L140.284 66.9868Z" fill="#CCCCCC"/>
<path d="M184.04 31.0687C191.214 31.0687 197.031 25.2525 197.031 18.0778C197.031 10.9031 191.214 5.08685 184.04 5.08685C176.865 5.08685 171.049 10.9031 171.049 18.0778C171.049 25.2525 176.865 31.0687 184.04 31.0687Z" fill="#FEB8B8"/>
<path d="M185.986 12.2519L196.073 12.6561C197.342 12.6522 198.728 12.6074 199.694 11.7868C201.15 10.5485 200.907 8.21188 200.127 6.46637C197.954 1.60624 193.106 -0.134923 187.783 0.00807317C182.46 0.151069 176.882 1.95525 174.016 6.44072C171.149 10.9262 170.375 16.5904 171.455 21.8026C172.703 19.1523 174.624 16.8757 177.027 15.2001C179.43 13.5245 182.231 12.5085 185.149 12.2536L185.986 12.2519Z" fill="#2F2E41"/>
<path d="M245.885 139.321L209.375 113.733C209.036 113.494 208.805 113.131 208.733 112.722C208.661 112.314 208.754 111.893 208.992 111.553L237.648 70.6654C237.887 70.3262 238.25 70.0954 238.659 70.0236C239.067 69.9517 239.488 70.0447 239.828 70.2821L276.338 95.8705C276.677 96.1093 276.908 96.4727 276.98 96.8812C277.052 97.2897 276.959 97.71 276.721 98.0502L248.066 138.937C247.827 139.276 247.464 139.508 247.055 139.58C246.646 139.652 246.226 139.559 245.885 139.321Z" fill="#364261"/>
<path d="M254.096 111.556L232.673 96.5411C232.425 96.3674 232.214 96.1467 232.051 95.8915C231.889 95.6362 231.778 95.3515 231.726 95.0535C231.673 94.7555 231.68 94.4502 231.746 94.1548C231.811 93.8595 231.934 93.5799 232.108 93.3322C232.282 93.0844 232.503 92.8733 232.758 92.7108C233.013 92.5484 233.298 92.4378 233.596 92.3854C233.894 92.333 234.199 92.3398 234.494 92.4054C234.79 92.471 235.069 92.5942 235.317 92.7678L256.741 107.783C257.241 108.133 257.582 108.668 257.687 109.27C257.793 109.872 257.656 110.491 257.305 110.992C256.954 111.492 256.419 111.832 255.818 111.938C255.216 112.044 254.597 111.907 254.096 111.556Z" fill="white"/>
<path d="M249.179 118.571L227.756 103.557C227.508 103.383 227.296 103.162 227.134 102.907C226.971 102.652 226.86 102.367 226.807 102.069C226.755 101.771 226.762 101.465 226.827 101.17C226.893 100.874 227.016 100.594 227.19 100.347C227.363 100.099 227.584 99.8875 227.84 99.725C228.095 99.5625 228.38 99.452 228.678 99.3996C228.976 99.3473 229.282 99.3543 229.577 99.4201C229.873 99.486 230.152 99.6094 230.4 99.7834L251.824 114.798C252.324 115.149 252.664 115.684 252.769 116.286C252.875 116.887 252.737 117.506 252.387 118.006C252.036 118.506 251.501 118.847 250.9 118.953C250.299 119.059 249.68 118.922 249.179 118.571Z" fill="white"/>
<path d="M244.209 125.662L222.786 110.647C222.538 110.474 222.327 110.253 222.164 109.998C222.002 109.743 221.891 109.458 221.839 109.16C221.787 108.862 221.793 108.557 221.859 108.261C221.925 107.966 222.048 107.686 222.221 107.439C222.395 107.191 222.616 106.98 222.871 106.817C223.126 106.655 223.411 106.544 223.709 106.492C224.007 106.439 224.312 106.446 224.608 106.512C224.903 106.577 225.183 106.7 225.43 106.874L246.854 121.889C247.354 122.24 247.695 122.775 247.801 123.377C247.907 123.978 247.769 124.598 247.418 125.098C247.068 125.598 246.533 125.939 245.931 126.045C245.329 126.151 244.71 126.013 244.209 125.662Z" fill="white"/>
<path d="M254.036 97.678L245.738 91.8623C245.49 91.6888 245.279 91.4681 245.116 91.2128C244.953 90.9575 244.842 90.6727 244.79 90.3746C244.737 90.0765 244.744 89.7709 244.81 89.4754C244.875 89.1799 244.998 88.9002 245.172 88.6523C245.346 88.4044 245.567 88.1931 245.822 88.0307C246.078 87.8682 246.362 87.7576 246.661 87.7053C246.959 87.653 247.264 87.66 247.56 87.7258C247.855 87.7917 248.135 87.9151 248.383 88.089L256.681 93.9047C257.181 94.2554 257.522 94.7905 257.627 95.3923C257.733 95.9941 257.596 96.6132 257.245 97.1136C256.894 97.614 256.359 97.9545 255.757 98.0604C255.156 98.1662 254.536 98.0287 254.036 97.678Z" fill="white"/>
</g>
<defs>
<clipPath id="clip0_14_656">
<rect width="400" height="223.877" fill="white"/>
</clipPath>
</defs>
</svg>
